<?xml version="1.0" encoding="UTF-8" standalone="no"?>
<svg width="129px" height="27px" viewBox="0 0 129 27" version="1.1" xmlns="http://www.w3.org/2000/svg" xmlns:xlink="http://www.w3.org/1999/xlink" xmlns:sketch="http://www.bohemiancoding.com/sketch/ns">
    <!-- Generator: Sketch 3.4 (15575) - http://www.bohemiancoding.com/sketch -->
    <title>logo-alfabank</title>
    <desc>Created with Sketch.</desc>
    <defs></defs>
    <g id="Page-1" stroke="none" stroke-width="1" fill="none" fill-rule="evenodd" sketch:type="MSPage">
        <g id="insurance" sketch:type="MSArtboardGroup" transform="translate(-178.000000, -337.000000)">
            <g id="Cтрахование-+-Воспользуйтесь-страх" sketch:type="MSLayerGroup" transform="translate(30.000000, 163.000000)">
                <g id="Oval-115-+-Imported-Layers" transform="translate(0.000000, 146.000000)" sketch:type="MSShapeGroup">
                    <g id="Imported-Layers-Copy-11-+-Oval-115-+-Imported-Layers" transform="translate(38.000000, 0.000000)">
                        <g id="logo-alfabank" transform="translate(110.000000, 28.000000)">
                            <path d="M19.0576761,0.0121583824 L8.26220914,0.0121583824 C3.88754472,0.0121583824 0.330237354,3.57025016 0.330237354,7.94295355 L0.330237354,18.7392049 C0.330237354,23.1111239 3.88754472,26.6700001 8.26220914,26.6700001 L19.0576761,26.6700001 C23.4292029,26.6700001 26.988079,23.1111239 26.988079,18.7392049 L26.988079,7.94295355 C26.988079,3.57025016 23.4292029,0.0121583824 19.0576761,0.0121583824" id="Fill-1" fill="#E71937"></path>
                            <path d="M22.0745237,16.6173711 L22.0651108,16.7362095 C22.027459,17.1986202 21.7372267,17.666914 21.2559901,17.666914 C20.8881009,17.666914 20.5923777,17.5304264 20.3511711,17.2507836 C20.0617231,16.9170164 19.8001218,16.516182 19.5365595,15.7894245 C20.2841039,13.2522446 22.5902745,5.12534649 22.5902745,5.12534649 L18.2140412,5.12534649 C18.2140412,5.12534649 17.8092848,7.03107487 17.4449255,8.76462488 C17.4264918,8.72265885 17.4076659,8.68069282 17.38884,8.64068782 C17.0240886,7.86176693 16.442055,6.99538414 15.7945231,6.3862884 C14.6673234,5.3261559 13.3412753,4.80962075 11.7406831,4.80962075 C9.53060297,4.80962075 7.66134973,5.62697781 6.18430237,7.2397284 C4.71392251,8.84228164 3.93774707,10.8990093 3.93774707,13.1855696 C3.93774707,15.7325546 4.67509413,17.8245808 6.12900134,19.4012484 C7.6464459,21.0481209 9.46000591,21.8148834 11.8359892,21.8148834 C13.2200837,21.8148834 14.5418175,21.4034595 15.7662843,20.5939465 C16.5573636,20.0715283 17.280199,19.3475162 17.9622451,18.4073987 C18.2489476,19.3353578 18.5376111,19.9695548 18.8831445,20.4437317 C19.4416456,21.2097098 20.2790052,21.6493726 21.1791177,21.6493726 C22.1157054,21.6493726 22.970322,21.1689204 23.4084159,20.3970592 C23.7966998,19.7122677 23.955151,18.8627498 23.955151,17.4653202 L23.955151,16.6173711 L22.0745237,16.6173711 M14.7394893,18.2418878 C14.075877,19.2133818 13.2098864,19.7259949 12.2336859,19.7259949 C11.0970733,19.7259949 10.237358,19.2165195 9.60394547,18.1638389 C8.94072532,17.0617403 8.60421267,15.4101614 8.60421267,13.2538134 C8.60421267,11.2767036 8.96033561,9.70552679 9.66277635,8.58342576 C10.3228589,7.52996076 11.1496289,7.03813458 12.2650624,7.03813458 C13.2573433,7.03813458 14.0327343,7.45112737 14.7069362,8.3394737 C15.4289873,9.29331841 16.0396518,10.8692016 16.4765692,12.8945528 C15.9278731,15.6329343 15.3913355,17.2884353 14.7394893,18.2418878" id="Fill-2" fill="#FFFFFF"></path>
                            <path d="M40.3332764,5.51127707 C40.0308857,4.14953825 39.1715626,3.19804677 37.2862289,3.19804677 C35.5130661,3.19804677 34.5407877,4.14953825 34.238397,5.51127707 L32.8695985,11.6779302 L34.3329186,11.6779302 C34.667078,11.6779302 34.9988842,11.4112302 35.0698735,11.0856993 L35.347163,9.83103268 L39.2252948,9.83103268 L39.5025844,11.0856993 C39.5739658,11.4112302 39.905772,11.6779302 40.239147,11.6779302 L41.7036438,11.6779302 L40.3332764,5.51127707 M35.7303482,8.09316841 L36.2123692,5.90897384 C36.290026,5.55598855 36.5649623,5.01670546 37.2862289,5.01670546 C38.0071033,5.01670546 38.2816475,5.55598855 38.3604808,5.90897384 L38.8421097,8.09316841 L35.7303482,8.09316841" id="Fill-3" fill="#E71937"></path>
                            <path d="M45.3103691,5.25712766 L48.5750909,5.25712766 L48.5750909,11.6779302 L50.5961278,11.6779302 L50.5961278,3.39807177 L44.5016406,3.39807177 C43.8352828,3.39807177 43.28894,3.94323795 43.28894,4.61077237 L43.28894,8.79482473 C43.28894,9.35450253 43.0308685,9.71101767 42.5829694,9.80044062 L42.1680156,9.8992765 L42.5437488,11.6779302 L42.9281106,11.6779302 C44.3110285,11.6779302 45.3103691,10.6491741 45.3103691,8.89875929 L45.3103691,5.25712766" id="Fill-4" fill="#E71937"></path>
                            <path d="M68.1602839,3.39807177 L67.4241134,3.39807177 L67.4241134,2.43599074 L66.0094268,2.43599074 C65.6752674,2.43599074 65.4026843,2.70700501 65.4026843,3.04116442 L65.4026843,3.39807177 L64.6665139,3.39807177 C62.1685546,3.39807177 60.6067908,5.10102972 60.6067908,7.53780487 C60.6067908,9.97497223 62.1685546,11.6779302 64.6665139,11.6779302 L65.4026843,11.6779302 L65.4026843,12.681585 L66.8173709,12.681585 C67.1515303,12.681585 67.4241134,12.4086097 67.4241134,12.0764114 L67.4241134,11.6779302 L68.1602839,11.6779302 C70.6582431,11.6779302 72.220007,9.97497223 72.220007,7.53780487 C72.220007,5.10102972 70.6582431,3.39807177 68.1602839,3.39807177 L68.1602839,3.39807177 Z M64.6665139,9.84946635 C63.2832037,9.84946635 62.6286121,8.97406282 62.6286121,7.53780487 C62.6286121,6.10272355 63.2832037,5.22732001 64.6665139,5.22732001 L65.4026843,5.22732001 L65.4026843,9.84946635 L64.6665139,9.84946635 L64.6665139,9.84946635 Z M68.1602839,9.84946635 L67.4241134,9.84946635 L67.4241134,5.22732001 L68.1602839,5.22732001 C69.5443784,5.22732001 70.1974012,6.10272355 70.1974012,7.53780487 C70.1974012,8.97406282 69.5443784,9.84946635 68.1602839,9.84946635 L68.1602839,9.84946635 Z" id="Fill-5" fill="#E71937"></path>
                            <path d="M56.8678921,5.49754987 L53.9675296,5.49754987 L53.9675296,3.39885619 L51.9457082,3.39885619 L51.9457082,11.0719721 C51.9457082,11.4053471 52.2190757,11.6779302 52.5528429,11.6779302 L56.8678921,11.6779302 C58.6300731,11.6779302 59.9565134,10.3503133 59.9565134,8.58774002 C59.9565134,6.8259512 58.8434331,5.49754987 56.8678921,5.49754987 M56.8678921,9.8196587 L53.9675296,9.8196587 L53.9675296,7.35699796 L56.8678921,7.35699796 C57.3605027,7.35699796 57.9362609,7.79822958 57.9362609,8.58774002 C57.9362609,9.37685826 57.3605027,9.8196587 56.8678921,9.8196587" id="Fill-6" fill="#E71937"></path>
                            <path d="M79.7578118,5.51127707 C79.4546367,4.14953825 78.5964902,3.19804677 76.7099799,3.19804677 C74.9379937,3.19804677 73.9653232,4.14953825 73.662148,5.51127707 L72.2929573,11.6779302 L73.7578462,11.6779302 C74.090829,11.6779302 74.4234196,11.4112302 74.4944089,11.0856993 L74.7713062,9.83103268 L78.649438,9.83103268 L78.9259432,11.0856993 C78.9977168,11.4112302 79.3303074,11.6779302 79.6632902,11.6779302 L81.1262182,11.6779302 L79.7578118,5.51127707 M75.1548836,8.09316841 L75.6353358,5.90897384 C75.7149536,5.55598855 75.9894977,5.01670546 76.7099799,5.01670546 C77.4316388,5.01670546 77.7053985,5.55598855 77.784624,5.90897384 L78.2658607,8.09316841 L75.1548836,8.09316841" id="Fill-7" fill="#E71937"></path>
                            <path d="M91.4741782,19.000414 C91.8314778,18.649782 92.060526,18.171683 92.060526,17.5088551 C92.060526,16.0412206 90.9235211,15.0156022 89.4551023,15.0156022 L84.5137004,15.0156022 C84.1807176,15.0156022 83.9077423,15.2874009 83.9077423,15.6215603 L83.9077423,22.6895026 C83.9077423,23.0228776 84.1807176,23.2954607 84.5137004,23.2954607 L89.7672982,23.2962451 C91.3149426,23.2962451 92.3433064,22.1886557 92.3433064,20.7218056 C92.3433064,19.9824976 91.9922822,19.4039939 91.4741782,19.000414 L91.4741782,19.000414 Z M89.4531413,16.7338562 C89.7218023,16.7338562 90.0892992,17.0354625 90.0892992,17.5504289 C90.0892992,18.0689251 89.7218023,18.3332718 89.4531413,18.3662171 L85.8879898,18.3662171 L85.8879898,16.7338562 L89.4531413,16.7338562 L89.4531413,16.7338562 Z M89.6151223,21.5779911 L85.8879898,21.5779911 L85.8879898,19.9448458 L89.6151223,19.9448458 C89.8841756,19.9777911 90.2508881,20.2421379 90.2508881,20.7614184 C90.2508881,21.2756004 89.8841756,21.5779911 89.6151223,21.5779911 L89.6151223,21.5779911 Z" id="Fill-8" fill="#E71937"></path>
                            <path d="M78.1230977,14.8249902 C75.624354,14.8249902 73.8782534,16.6044283 73.8782534,19.1553353 C73.8782534,21.705458 75.624354,23.4864649 78.1230977,23.4864649 L78.8149489,23.4864649 C81.314477,23.4864649 83.0601854,21.705458 83.0601854,19.1553353 C83.0601854,16.6044283 81.314477,14.8249902 78.8149489,14.8249902 L78.1230977,14.8249902 M76.0612714,19.1553353 C76.0612714,17.6704439 76.8519585,16.5354 78.2450738,16.5354 L78.6941495,16.5354 C80.085696,16.5354 80.8767752,17.6704439 80.8767752,19.1553353 C80.8767752,20.640619 80.085696,21.7764473 78.6941495,21.7764473 L78.2450738,21.7764473 C76.8519585,21.7764473 76.0612714,20.640619 76.0612714,19.1553353" id="Fill-9" fill="#E71937"></path>
                            <path d="M40.4026969,15.0156022 L40.6690047,16.2679156 C40.7399939,16.602075 41.0710157,16.8738737 41.4047829,16.8738737 L43.2893322,16.8738737 L43.2893322,23.2954607 L45.3107613,23.2954607 L45.3107613,16.8738737 L47.1356953,16.8738737 C47.4686781,16.8738737 47.7993076,16.602075 47.8699047,16.2679156 L48.1366047,15.0156022 L40.4026969,15.0156022" id="Fill-10" fill="#E71937"></path>
                            <path d="M108.488462,15.0156022 L108.488462,18.3034642 L104.555813,18.3034642 L104.555813,15.0156022 L102.534384,15.0156022 L102.534384,23.2954607 L104.555813,23.2954607 L104.555813,20.0789802 L108.488462,20.0789802 L108.488462,23.2954607 L110.510283,23.2954607 L110.510283,15.0156022 L108.488462,15.0156022" id="Fill-11" fill="#E71937"></path>
                            <path d="M63.9272058,17.1299842 C63.6240306,15.7670687 62.7666686,14.8163617 60.8797661,14.8163617 C59.1085643,14.8163617 58.1362859,15.7670687 57.8342874,17.1299842 L56.4647044,23.2954607 L57.928809,23.2954607 C58.2625762,23.2954607 58.5939902,23.0299373 58.6661561,22.7040142 L58.942269,21.4485631 L62.8192242,21.4485631 L63.0961215,22.7040142 C63.1671108,23.0299373 63.4997014,23.2954607 63.8338608,23.2954607 L65.2967887,23.2954607 L63.9272058,17.1299842 M59.3246697,19.7106989 L59.8062986,17.5265043 C59.8843475,17.1743034 60.1581072,16.6342359 60.8797661,16.6342359 C61.6010327,16.6342359 61.875969,17.1743034 61.9548024,17.5280731 L62.4356468,19.7106989 L59.3246697,19.7106989" id="Fill-12" fill="#E71937"></path>
                            <path d="M100.272141,17.1299842 C99.9689654,15.7670687 99.110819,14.8163617 97.2243087,14.8163617 C95.4515381,14.8163617 94.4804363,15.7670687 94.1768689,17.1299842 L92.8080704,23.2954607 L94.2725672,23.2954607 C94.6059422,23.2954607 94.9381406,23.0299373 95.0087376,22.7040142 L95.2860272,21.4485631 L99.1637668,21.4485631 L99.4410563,22.7040142 C99.5132222,23.0299373 99.8446362,23.2954607 100.177227,23.2954607 L101.642508,23.2954607 L100.272141,17.1299842 M95.6684279,19.7106989 L96.1500567,17.5265043 C96.2296745,17.1743034 96.5034342,16.6342359 97.2243087,16.6342359 C97.9451831,16.6342359 98.2201194,17.1743034 98.2989528,17.5280731 L98.7797972,19.7106989 L95.6684279,19.7106989" id="Fill-13" fill="#E71937"></path>
                            <path d="M41.0314029,23.2727127 L41.0314029,23.2962451 L37.0822819,23.2962451 C34.691787,23.2962451 33.0221666,21.5940715 33.0221666,19.1553353 C33.0221666,16.7177758 34.691787,15.0156022 37.0822819,15.0156022 L40.0783426,15.0156022 L39.7849726,16.2839961 C39.7104535,16.609527 39.3762941,16.8738737 39.0425269,16.8738737 L37.0822819,16.8738737 C35.8052595,16.8738737 35.0435957,17.8277184 35.0435957,19.1553353 C35.0435957,20.4825601 35.8052595,21.4371892 37.0822819,21.4371892 L40.0014703,21.4371892 C40.3340609,21.4371892 40.6690047,21.7023204 40.743916,22.0278512 L41.0314029,23.2727127" id="Fill-14" fill="#E71937"></path>
                            <path d="M53.5537524,15.0156022 L49.2390954,15.0163867 C48.904936,15.0163867 48.6323529,15.2889697 48.6323529,15.6223448 L48.6323529,23.2962451 L50.6541743,23.2962451 L50.6541743,21.1959826 L53.5537524,21.1959826 C55.5312544,21.1959826 56.6439425,19.8675812 56.6439425,18.1065768 C56.6439425,16.344788 55.3159334,15.0156022 53.5537524,15.0156022 M53.5537524,19.3365345 L50.6541743,19.3365345 L50.6541743,16.876227 L53.5537524,16.876227 C54.0471474,16.876227 54.6229056,17.3166742 54.6229056,18.1065768 C54.6229056,18.8953028 54.0471474,19.3365345 53.5537524,19.3365345" id="Fill-15" fill="#E71937"></path>
                            <path d="M127.645758,21.547399 L123.291488,21.547399 L123.291488,19.9577886 L128.025021,19.9577886 L128.025021,18.3607262 L123.291488,18.3607262 L123.291488,16.7628795 L127.645758,16.7628795 C128.004234,16.7628795 128.287799,16.6059971 128.386635,16.1722174 L128.65608,15.0156022 L121.876802,15.0156022 C121.543427,15.0156022 121.270059,15.2874009 121.270059,15.6215603 L121.270059,22.6895026 C121.270059,23.0228776 121.543427,23.2962451 121.876802,23.2962451 L128.65608,23.2962451 L128.386635,22.1396299 C128.287799,21.7062424 128.004234,21.547399 127.645758,21.547399" id="Fill-16" fill="#E71937"></path>
                            <path d="M111.896339,23.2954607 L111.896339,15.0156022 L113.917768,15.0156022 L113.917768,20.4782458 L117.420166,15.5035064 C117.617838,15.2352375 118.050441,15.0156022 118.386169,15.0156022 L119.884396,15.0156022 L119.884396,23.2954607 L117.862967,23.2954607 L117.862967,17.8332093 L114.359392,22.8067721 C114.163289,23.0758254 113.729117,23.2954607 113.395349,23.2954607 L111.896339,23.2954607" id="Fill-17" fill="#E71937"></path>
                            <path d="M71.3936292,19.1114083 L74.2151583,15.0156022 L72.3584556,15.0156022 C71.9568368,15.0156022 71.6748408,15.1371861 71.4269667,15.5266465 L69.9236415,17.8865493 L69.6549805,17.8865493 L68.1508709,15.5266465 C67.9037812,15.1371861 67.6221774,15.0156022 67.2189898,15.0156022 L65.3026718,15.0156022 L68.1842084,19.1988702 L65.3626793,23.2954607 L67.2189898,23.2954607 C67.6221774,23.2954607 67.9037812,23.1746612 68.1508709,22.7848086 L69.6549805,20.4237292 L69.9236415,20.4237292 L71.4269667,22.7848086 C71.6748408,23.1746612 71.9568368,23.2954607 72.3584556,23.2954607 L74.2747736,23.2954607 L71.3936292,19.1114083" id="Fill-18" fill="#E71937"></path>
                        </g>
                    </g>
                </g>
            </g>
        </g>
    </g>
</svg>