<?xml version="1.0" encoding="UTF-8"?>
<svg xmlns="http://www.w3.org/2000/svg" xmlns:xlink="http://www.w3.org/1999/xlink" width="18pt" height="14pt" viewBox="0 0 18 14" version="1.1">
<defs>
<clipPath id="clip2">
  <path d="M 16 6 L 18 6 L 18 8 L 16 8 Z M 16 6 "/>
</clipPath>
<clipPath id="clip3">
  <path d="M 17 8 C 17.550781 8 18 7.550781 18 7 C 18 6.449219 17.550781 6 17 6 C 16.449219 6 16 6.449219 16 7 C 16 7.550781 16.449219 8 17 8 Z M 17 8 "/>
</clipPath>
<clipPath id="clip4">
  <path d="M 14 3 L 16 3 L 16 5 L 14 5 Z M 14 3 "/>
</clipPath>
<clipPath id="clip5">
  <path d="M 15 5 C 15.550781 5 16 4.550781 16 4 C 16 3.449219 15.550781 3 15 3 C 14.449219 3 14 3.449219 14 4 C 14 4.550781 14.449219 5 15 5 Z M 15 5 "/>
</clipPath>
<clipPath id="clip6">
  <path d="M 12 0 L 14 0 L 14 2 L 12 2 Z M 12 0 "/>
</clipPath>
<clipPath id="clip7">
  <path d="M 13 2 C 13.550781 2 14 1.550781 14 1 C 14 0.449219 13.550781 0 13 0 C 12.449219 0 12 0.449219 12 1 C 12 1.550781 12.449219 2 13 2 Z M 13 2 "/>
</clipPath>
<clipPath id="clip8">
  <path d="M 12 12 L 14 12 L 14 14 L 12 14 Z M 12 12 "/>
</clipPath>
<clipPath id="clip9">
  <path d="M 13 14 C 13.550781 14 14 13.550781 14 13 C 14 12.449219 13.550781 12 13 12 C 12.449219 12 12 12.449219 12 13 C 12 13.550781 12.449219 14 13 14 Z M 13 14 "/>
</clipPath>
<clipPath id="clip10">
  <path d="M 14 9 L 16 9 L 16 11 L 14 11 Z M 14 9 "/>
</clipPath>
<clipPath id="clip11">
  <path d="M 15 11 C 15.550781 11 16 10.550781 16 10 C 16 9.449219 15.550781 9 15 9 C 14.449219 9 14 9.449219 14 10 C 14 10.550781 14.449219 11 15 11 Z M 15 11 "/>
</clipPath>
<clipPath id="clip12">
  <path d="M 12 6 L 14 6 L 14 8 L 12 8 Z M 12 6 "/>
</clipPath>
<clipPath id="clip13">
  <path d="M 13 8 C 13.550781 8 14 7.550781 14 7 C 14 6.449219 13.550781 6 13 6 C 12.449219 6 12 6.449219 12 7 C 12 7.550781 12.449219 8 13 8 Z M 13 8 "/>
</clipPath>
<clipPath id="clip14">
  <path d="M 8 6 L 10 6 L 10 8 L 8 8 Z M 8 6 "/>
</clipPath>
<clipPath id="clip15">
  <path d="M 9 8 C 9.550781 8 10 7.550781 10 7 C 10 6.449219 9.550781 6 9 6 C 8.449219 6 8 6.449219 8 7 C 8 7.550781 8.449219 8 9 8 Z M 9 8 "/>
</clipPath>
<clipPath id="clip16">
  <path d="M 4 6 L 6 6 L 6 8 L 4 8 Z M 4 6 "/>
</clipPath>
<clipPath id="clip17">
  <path d="M 5 8 C 5.550781 8 6 7.550781 6 7 C 6 6.449219 5.550781 6 5 6 C 4.449219 6 4 6.449219 4 7 C 4 7.550781 4.449219 8 5 8 Z M 5 8 "/>
</clipPath>
<clipPath id="clip18">
  <path d="M 0 6 L 2 6 L 2 8 L 0 8 Z M 0 6 "/>
</clipPath>
<clipPath id="clip19">
  <path d="M 1 8 C 1.550781 8 2 7.550781 2 7 C 2 6.449219 1.550781 6 1 6 C 0.449219 6 0 6.449219 0 7 C 0 7.550781 0.449219 8 1 8 Z M 1 8 "/>
</clipPath>
<clipPath id="clip1">
  <rect width="18" height="14"/>
</clipPath>
<g id="surface4" clip-path="url(#clip1)">
<g clip-path="url(#clip2)" clip-rule="nonzero">
<g clip-path="url(#clip3)" clip-rule="evenodd">
<path style=" stroke:none;fill-rule:nonzero;fill:rgb(6.666565%,58.824158%,83.529663%);fill-opacity:1;" d="M 11 1 L 23 1 L 23 13 L 11 13 Z M 11 1 "/>
</g>
</g>
<g clip-path="url(#clip4)" clip-rule="nonzero">
<g clip-path="url(#clip5)" clip-rule="evenodd">
<path style=" stroke:none;fill-rule:nonzero;fill:rgb(6.666565%,58.824158%,83.529663%);fill-opacity:1;" d="M 9 -2 L 21 -2 L 21 10 L 9 10 Z M 9 -2 "/>
</g>
</g>
<g clip-path="url(#clip6)" clip-rule="nonzero">
<g clip-path="url(#clip7)" clip-rule="evenodd">
<path style=" stroke:none;fill-rule:nonzero;fill:rgb(6.666565%,58.824158%,83.529663%);fill-opacity:1;" d="M 7 -5 L 19 -5 L 19 7 L 7 7 Z M 7 -5 "/>
</g>
</g>
<g clip-path="url(#clip8)" clip-rule="nonzero">
<g clip-path="url(#clip9)" clip-rule="evenodd">
<path style=" stroke:none;fill-rule:nonzero;fill:rgb(6.666565%,58.824158%,83.529663%);fill-opacity:1;" d="M 7 7 L 19 7 L 19 19 L 7 19 Z M 7 7 "/>
</g>
</g>
<g clip-path="url(#clip10)" clip-rule="nonzero">
<g clip-path="url(#clip11)" clip-rule="evenodd">
<path style=" stroke:none;fill-rule:nonzero;fill:rgb(6.666565%,58.824158%,83.529663%);fill-opacity:1;" d="M 9 4 L 21 4 L 21 16 L 9 16 Z M 9 4 "/>
</g>
</g>
<g clip-path="url(#clip12)" clip-rule="nonzero">
<g clip-path="url(#clip13)" clip-rule="evenodd">
<path style=" stroke:none;fill-rule:nonzero;fill:rgb(6.666565%,58.824158%,83.529663%);fill-opacity:1;" d="M 7 1 L 19 1 L 19 13 L 7 13 Z M 7 1 "/>
</g>
</g>
<g clip-path="url(#clip14)" clip-rule="nonzero">
<g clip-path="url(#clip15)" clip-rule="evenodd">
<path style=" stroke:none;fill-rule:nonzero;fill:rgb(6.666565%,58.824158%,83.529663%);fill-opacity:1;" d="M 3 1 L 15 1 L 15 13 L 3 13 Z M 3 1 "/>
</g>
</g>
<g clip-path="url(#clip16)" clip-rule="nonzero">
<g clip-path="url(#clip17)" clip-rule="evenodd">
<path style=" stroke:none;fill-rule:nonzero;fill:rgb(6.666565%,58.824158%,83.529663%);fill-opacity:1;" d="M -1 1 L 11 1 L 11 13 L -1 13 Z M -1 1 "/>
</g>
</g>
<g clip-path="url(#clip18)" clip-rule="nonzero">
<g clip-path="url(#clip19)" clip-rule="evenodd">
<path style=" stroke:none;fill-rule:nonzero;fill:rgb(6.666565%,58.824158%,83.529663%);fill-opacity:1;" d="M -5 1 L 7 1 L 7 13 L -5 13 Z M -5 1 "/>
</g>
</g>
</g>
</defs>
<g id="surface1">
<use xlink:href="#surface4"/>
</g>
</svg>
