<?xml version="1.0" encoding="UTF-8"?>
<svg xmlns="http://www.w3.org/2000/svg" xmlns:xlink="http://www.w3.org/1999/xlink" width="18pt" height="14pt" viewBox="0 0 18 14" version="1.1">
<defs>
<clipPath id="clip2">
  <path d="M 0 6 L 2 6 L 2 8 L 0 8 Z M 0 6 "/>
</clipPath>
<clipPath id="clip3">
  <path d="M 1 6 C 0.449219 6 0 6.449219 0 7 C 0 7.550781 0.449219 8 1 8 C 1.550781 8 2 7.550781 2 7 C 2 6.449219 1.550781 6 1 6 Z M 1 6 "/>
</clipPath>
<clipPath id="clip4">
  <path d="M 2 9 L 4 9 L 4 11 L 2 11 Z M 2 9 "/>
</clipPath>
<clipPath id="clip5">
  <path d="M 3 9 C 2.449219 9 2 9.449219 2 10 C 2 10.550781 2.449219 11 3 11 C 3.550781 11 4 10.550781 4 10 C 4 9.449219 3.550781 9 3 9 Z M 3 9 "/>
</clipPath>
<clipPath id="clip6">
  <path d="M 4 12 L 6 12 L 6 14 L 4 14 Z M 4 12 "/>
</clipPath>
<clipPath id="clip7">
  <path d="M 5 12 C 4.449219 12 4 12.449219 4 13 C 4 13.550781 4.449219 14 5 14 C 5.550781 14 6 13.550781 6 13 C 6 12.449219 5.550781 12 5 12 Z M 5 12 "/>
</clipPath>
<clipPath id="clip8">
  <path d="M 4 0 L 6 0 L 6 2 L 4 2 Z M 4 0 "/>
</clipPath>
<clipPath id="clip9">
  <path d="M 5 0 C 4.449219 0 4 0.449219 4 1 C 4 1.550781 4.449219 2 5 2 C 5.550781 2 6 1.550781 6 1 C 6 0.449219 5.550781 0 5 0 Z M 5 0 "/>
</clipPath>
<clipPath id="clip10">
  <path d="M 2 3 L 4 3 L 4 5 L 2 5 Z M 2 3 "/>
</clipPath>
<clipPath id="clip11">
  <path d="M 3 3 C 2.449219 3 2 3.449219 2 4 C 2 4.550781 2.449219 5 3 5 C 3.550781 5 4 4.550781 4 4 C 4 3.449219 3.550781 3 3 3 Z M 3 3 "/>
</clipPath>
<clipPath id="clip12">
  <path d="M 4 6 L 6 6 L 6 8 L 4 8 Z M 4 6 "/>
</clipPath>
<clipPath id="clip13">
  <path d="M 5 6 C 4.449219 6 4 6.449219 4 7 C 4 7.550781 4.449219 8 5 8 C 5.550781 8 6 7.550781 6 7 C 6 6.449219 5.550781 6 5 6 Z M 5 6 "/>
</clipPath>
<clipPath id="clip14">
  <path d="M 8 6 L 10 6 L 10 8 L 8 8 Z M 8 6 "/>
</clipPath>
<clipPath id="clip15">
  <path d="M 9 6 C 8.449219 6 8 6.449219 8 7 C 8 7.550781 8.449219 8 9 8 C 9.550781 8 10 7.550781 10 7 C 10 6.449219 9.550781 6 9 6 Z M 9 6 "/>
</clipPath>
<clipPath id="clip16">
  <path d="M 12 6 L 14 6 L 14 8 L 12 8 Z M 12 6 "/>
</clipPath>
<clipPath id="clip17">
  <path d="M 13 6 C 12.449219 6 12 6.449219 12 7 C 12 7.550781 12.449219 8 13 8 C 13.550781 8 14 7.550781 14 7 C 14 6.449219 13.550781 6 13 6 Z M 13 6 "/>
</clipPath>
<clipPath id="clip18">
  <path d="M 16 6 L 18 6 L 18 8 L 16 8 Z M 16 6 "/>
</clipPath>
<clipPath id="clip19">
  <path d="M 17 6 C 16.449219 6 16 6.449219 16 7 C 16 7.550781 16.449219 8 17 8 C 17.550781 8 18 7.550781 18 7 C 18 6.449219 17.550781 6 17 6 Z M 17 6 "/>
</clipPath>
<clipPath id="clip1">
  <rect width="18" height="14"/>
</clipPath>
<g id="surface4" clip-path="url(#clip1)">
<g clip-path="url(#clip2)" clip-rule="nonzero">
<g clip-path="url(#clip3)" clip-rule="evenodd">
<path style=" stroke:none;fill-rule:nonzero;fill:rgb(6.666565%,58.824158%,83.529663%);fill-opacity:1;" d="M 7 13 L -5 13 L -5 1 L 7 1 Z M 7 13 "/>
</g>
</g>
<g clip-path="url(#clip4)" clip-rule="nonzero">
<g clip-path="url(#clip5)" clip-rule="evenodd">
<path style=" stroke:none;fill-rule:nonzero;fill:rgb(6.666565%,58.824158%,83.529663%);fill-opacity:1;" d="M 9 16 L -3 16 L -3 4 L 9 4 Z M 9 16 "/>
</g>
</g>
<g clip-path="url(#clip6)" clip-rule="nonzero">
<g clip-path="url(#clip7)" clip-rule="evenodd">
<path style=" stroke:none;fill-rule:nonzero;fill:rgb(6.666565%,58.824158%,83.529663%);fill-opacity:1;" d="M 11 19 L -1 19 L -1 7 L 11 7 Z M 11 19 "/>
</g>
</g>
<g clip-path="url(#clip8)" clip-rule="nonzero">
<g clip-path="url(#clip9)" clip-rule="evenodd">
<path style=" stroke:none;fill-rule:nonzero;fill:rgb(6.666565%,58.824158%,83.529663%);fill-opacity:1;" d="M 11 7 L -1 7 L -1 -5 L 11 -5 Z M 11 7 "/>
</g>
</g>
<g clip-path="url(#clip10)" clip-rule="nonzero">
<g clip-path="url(#clip11)" clip-rule="evenodd">
<path style=" stroke:none;fill-rule:nonzero;fill:rgb(6.666565%,58.824158%,83.529663%);fill-opacity:1;" d="M 9 10 L -3 10 L -3 -2 L 9 -2 Z M 9 10 "/>
</g>
</g>
<g clip-path="url(#clip12)" clip-rule="nonzero">
<g clip-path="url(#clip13)" clip-rule="evenodd">
<path style=" stroke:none;fill-rule:nonzero;fill:rgb(6.666565%,58.824158%,83.529663%);fill-opacity:1;" d="M 11 13 L -1 13 L -1 1 L 11 1 Z M 11 13 "/>
</g>
</g>
<g clip-path="url(#clip14)" clip-rule="nonzero">
<g clip-path="url(#clip15)" clip-rule="evenodd">
<path style=" stroke:none;fill-rule:nonzero;fill:rgb(6.666565%,58.824158%,83.529663%);fill-opacity:1;" d="M 15 13 L 3 13 L 3 1 L 15 1 Z M 15 13 "/>
</g>
</g>
<g clip-path="url(#clip16)" clip-rule="nonzero">
<g clip-path="url(#clip17)" clip-rule="evenodd">
<path style=" stroke:none;fill-rule:nonzero;fill:rgb(6.666565%,58.824158%,83.529663%);fill-opacity:1;" d="M 19 13 L 7 13 L 7 1 L 19 1 Z M 19 13 "/>
</g>
</g>
<g clip-path="url(#clip18)" clip-rule="nonzero">
<g clip-path="url(#clip19)" clip-rule="evenodd">
<path style=" stroke:none;fill-rule:nonzero;fill:rgb(6.666565%,58.824158%,83.529663%);fill-opacity:1;" d="M 23 13 L 11 13 L 11 1 L 23 1 Z M 23 13 "/>
</g>
</g>
</g>
</defs>
<g id="surface1">
<use xlink:href="#surface4"/>
</g>
</svg>
