<?xml version="1.0" encoding="UTF-8"?>
<svg xmlns="http://www.w3.org/2000/svg" xmlns:xlink="http://www.w3.org/1999/xlink" width="24pt" height="8pt" viewBox="0 0 24 8" version="1.1">
<defs>
<clipPath id="clip2">
  <path d="M 10 2 L 14 2 L 14 6 L 10 6 Z M 10 2 "/>
</clipPath>
<clipPath id="clip3">
  <path d="M 12 6 C 13.105469 6 14 5.105469 14 4 C 14 2.894531 13.105469 2 12 2 C 10.894531 2 10 2.894531 10 4 C 10 5.105469 10.894531 6 12 6 Z M 12 6 "/>
</clipPath>
<clipPath id="clip1">
  <rect width="24" height="8"/>
</clipPath>
<g id="surface4" clip-path="url(#clip1)">
<path style="fill:none;stroke-width:2;stroke-linecap:round;stroke-linejoin:round;stroke:rgb(0%,59.608459%,83.921814%);stroke-opacity:1;stroke-miterlimit:10;" d="M 0 0 L 3 3 L 0 6 " transform="matrix(1,0,0,1,1,1)"/>
<path style="fill:none;stroke-width:2;stroke-linecap:round;stroke-linejoin:round;stroke:rgb(0%,59.608459%,83.921814%);stroke-opacity:1;stroke-miterlimit:10;" d="M 0 0 L 3 3 L 0 6 " transform="matrix(1,0,0,1,20,1)"/>
<g clip-path="url(#clip2)" clip-rule="nonzero">
<g clip-path="url(#clip3)" clip-rule="evenodd">
<path style=" stroke:none;fill-rule:nonzero;fill:rgb(0%,59.608459%,83.921814%);fill-opacity:1;" d="M 5 -3 L 19 -3 L 19 11 L 5 11 Z M 5 -3 "/>
</g>
</g>
</g>
</defs>
<g id="surface1">
<use xlink:href="#surface4"/>
</g>
</svg>
