<?xml version="1.0" encoding="UTF-8" standalone="no"?>
<svg width="80px" height="80px" viewBox="0 0 80 80" version="1.1" xmlns="http://www.w3.org/2000/svg" xmlns:xlink="http://www.w3.org/1999/xlink" xmlns:sketch="http://www.bohemiancoding.com/sketch/ns">
    <!-- Generator: Sketch 3.4 (15575) - http://www.bohemiancoding.com/sketch -->
    <title>ico-luggage-cabin</title>
    <desc>Created with Sketch.</desc>
    <defs></defs>
    <g id="Page-1" stroke="none" stroke-width="1" fill="none" fill-rule="evenodd" sketch:type="MSPage">
        <g id="luggage" sketch:type="MSArtboardGroup" transform="translate(-148.000000, -547.000000)">
            <g id="Group" sketch:type="MSLayerGroup" transform="translate(0.000000, 386.000000)">
                <g id="Group-Copy" transform="translate(30.000000, 16.000000)" sketch:type="MSShapeGroup">
                    <g id="Личные-вещи-в-салоне-+-Oval-115-+-Imported-Layers" transform="translate(19.000000, 145.000000)">
                        <g id="ico-luggage-cabin" transform="translate(99.000000, 0.000000)">
                            <circle id="Oval-115" fill="#E4097F" cx="40" cy="40" r="40"></circle>
                            <g id="Imported-Layers" transform="translate(16.000000, 17.000000)" fill="#FFFFFF">
                                <path d="M43,45.971 L5,45.971 C2.243,45.971 0,43.728 0,40.971 L1.825,22.672 C1.978,21.133 3.261,19.971 4.81,19.971 L43.19,19.971 C44.739,19.971 46.021,21.133 46.175,22.673 L47.995,40.872 C48,43.728 45.757,45.971 43,45.971 L43,45.971 Z M4.81,21.971 C4.294,21.971 3.866,22.358 3.815,22.871 L1.995,41.071 C2,42.625 3.346,43.971 5,43.971 L43,43.971 C44.654,43.971 46,42.625 46,40.971 L44.185,22.872 C44.134,22.358 43.706,21.971 43.19,21.971 L4.81,21.971 L4.81,21.971 Z" id="Fill-1"></path>
                                <path d="M27.999,32.971 C27.546,32.971 27.135,32.661 27.026,32.2 C26.9,31.663 27.233,31.125 27.771,30.998 L44.77,26.998 C45.306,26.872 45.847,27.204 45.974,27.742 C46.1,28.28 45.767,28.818 45.23,28.945 L28.229,32.945 C28.152,32.963 28.075,32.971 27.999,32.971" id="Fill-2"></path>
                                <path d="M20.001,32.971 C19.925,32.971 19.848,32.963 19.771,32.945 L2.771,28.945 C2.233,28.818 1.9,28.28 2.026,27.742 C2.153,27.204 2.69,26.872 3.229,26.998 L20.229,30.998 C20.767,31.125 21.1,31.663 20.974,32.2 C20.865,32.661 20.454,32.971 20.001,32.971" id="Fill-3"></path>
                                <path d="M28,35.971 L20,35.971 C19.447,35.971 19,35.523 19,34.971 L19,28.971 C19,28.419 19.447,27.971 20,27.971 L28,27.971 C28.553,27.971 29,28.419 29,28.971 L29,34.971 C29,35.523 28.553,35.971 28,35.971 L28,35.971 Z M21,33.971 L27,33.971 L27,29.971 L21,29.971 L21,33.971 Z" id="Fill-4"></path>
                                <path d="M36.001,23.971 C35.631,23.971 35.275,23.766 35.102,23.411 L24.816,2.411 C24.595,2.047 24.17,2 24,2 C23.83,2 23.405,2.047 23.143,2.485 L12.898,23.411 C12.655,23.907 12.059,24.114 11.56,23.869 C11.065,23.626 10.859,23.027 11.102,22.531 L21.387,1.531 C21.975,0.544 22.936,0 24,0 C25.064,0 26.025,0.544 26.572,1.457 L36.898,22.531 C37.141,23.027 36.936,23.626 36.44,23.869 C36.298,23.938 36.148,23.971 36.001,23.971" id="Fill-5"></path>
                            </g>
                        </g>
                    </g>
                </g>
            </g>
        </g>
    </g>
</svg>