<?xml version="1.0" encoding="UTF-8" standalone="no"?>
<svg width="80px" height="80px" viewBox="0 0 80 80" version="1.1" xmlns="http://www.w3.org/2000/svg" xmlns:xlink="http://www.w3.org/1999/xlink" xmlns:sketch="http://www.bohemiancoding.com/sketch/ns">
    <!-- Generator: Sketch 3.4 (15575) - http://www.bohemiancoding.com/sketch -->
    <title>ico-luggage</title>
    <desc>Created with Sketch.</desc>
    <defs></defs>
    <g id="Page-1" stroke="none" stroke-width="1" fill="none" fill-rule="evenodd" sketch:type="MSPage">
        <g id="luggage" sketch:type="MSArtboardGroup" transform="translate(-148.000000, -749.000000)">
            <g id="Group" sketch:type="MSLayerGroup" transform="translate(0.000000, 386.000000)">
                <g id="Group-Copy" transform="translate(30.000000, 16.000000)" sketch:type="MSShapeGroup">
                    <g id="Одно-место-багажа-в--+-Oval-115-+-Imported-Layers-Copy-2" transform="translate(25.000000, 347.000000)">
                        <g id="ico-luggage" transform="translate(93.000000, 0.000000)">
                            <circle id="Oval-115" fill="#E4097F" cx="40" cy="40" r="40"></circle>
                            <g id="Imported-Layers" transform="translate(18.000000, 17.000000)" fill="#FFFFFF">
                                <path d="M39,44 L5,44 C2.243,44 0,41.757 0,39 L0,23 C0,20.243 2.243,18 5,18 L39,18 C41.757,18 44,20.243 44,23 L44,39 C44,41.757 41.757,44 39,44 L39,44 Z M5,20 C3.346,20 2,21.346 2,23 L2,39 C2,40.654 3.346,42 5,42 L39,42 C40.654,42 42,40.654 42,39 L42,23 C42,21.346 40.654,20 39,20 L5,20 L5,20 Z" id="Fill-1"></path>
                                <path d="M31,46 C30.447,46 30,45.552 30,45 L30,5 C30,3.346 28.654,2 27,2 L17,2 C15.346,2 14,3.346 14,5 L14,24 C14,24.552 13.553,25 13,25 C12.447,25 12,24.552 12,24 L12,5 C12,2.243 14.243,0 17,0 L27,0 C29.757,0 32,2.243 32,5 L32,45 C32,45.552 31.553,46 31,46" id="Fill-2"></path>
                                <path d="M16,37 L10,37 C9.447,37 9,36.552 9,36 L9,26 C9,25.665 9.167,25.353 9.445,25.168 L12.445,23.168 C12.781,22.944 13.219,22.944 13.555,23.168 L16.555,25.168 C16.833,25.353 17,25.665 17,26 L17,36 C17,36.552 16.553,37 16,37 L16,37 Z M11,35 L15,35 L15,26.535 L13,25.202 L11,26.535 L11,35 L11,35 Z" id="Fill-3"></path>
                                <path d="M13,46 C12.447,46 12,45.552 12,45 L12,40 C12,39.448 12.447,39 13,39 C13.553,39 14,39.448 14,40 L14,45 C14,45.552 13.553,46 13,46" id="Fill-4"></path>
                                <path d="M10,32 L5,32 C2.243,32 0,29.757 0,27 C0,26.448 0.447,26 1,26 C1.553,26 2,26.448 2,27 C2,28.654 3.346,30 5,30 L10,30 C10.553,30 11,30.448 11,31 C11,31.552 10.553,32 10,32" id="Fill-5"></path>
                                <path d="M39,32 L16,32 C15.447,32 15,31.552 15,31 C15,30.448 15.447,30 16,30 L39,30 C40.654,30 42,28.654 42,27 C42,26.448 42.447,26 43,26 C43.553,26 44,26.448 44,27 C44,29.757 41.757,32 39,32" id="Fill-6"></path>
                                <path d="M22.003,35 L19.997,35 C19.446,34.998 18.999,34.551 18.999,34 C18.999,33.448 19.445,33 19.997,33 L22.003,33 C22.555,33 23.003,33.448 23.003,34 C23.003,34.552 22.555,35 22.003,35" id="Fill-7"></path>
                            </g>
                        </g>
                    </g>
                </g>
            </g>
        </g>
    </g>
</svg>