<?xml version="1.0" encoding="UTF-8"?>
<svg xmlns="http://www.w3.org/2000/svg" xmlns:xlink="http://www.w3.org/1999/xlink" width="16pt" height="16pt" viewBox="0 0 16 16" version="1.1">
<g id="surface1">
<path style="fill:none;stroke-width:2;stroke-linecap:round;stroke-linejoin:round;stroke:rgb(0%,59.608459%,83.921814%);stroke-opacity:1;stroke-miterlimit:10;" d="M 13 14 L 1 14 C 0.449219 14 0 13.550781 0 13 L 0 4 C 0 3.449219 0.449219 3 1 3 L 13 3 C 13.550781 3 14 3.449219 14 4 L 14 13 C 14 13.550781 13.550781 14 13 14 Z M 4 3 L 4 1 C 4 0.449219 4.449219 0 5 0 L 9 0 C 9.550781 0 10 0.449219 10 1 L 10 3 Z M 4 4 L 4 7 Z M 10 4 L 10 7 Z M 10 4 " transform="matrix(1,0,0,1,1,1)"/>
</g>
</svg>
