<?xml version="1.0" encoding="utf-8"?>
<!-- Generator: Adobe Illustrator 16.0.0, SVG Export Plug-In . SVG Version: 6.00 Build 0)  -->
<!DOCTYPE svg PUBLIC "-//W3C//DTD SVG 1.1//EN" "http://www.w3.org/Graphics/SVG/1.1/DTD/svg11.dtd">
<svg version="1.1" id="Слой_1" xmlns="http://www.w3.org/2000/svg" xmlns:xlink="http://www.w3.org/1999/xlink" x="0px" y="0px"
	 width="19px" height="11.25px" viewBox="0 0 19 11.25" enable-background="new 0 0 19 11.25" xml:space="preserve">
<g>
	<defs>
		<rect id="SVGID_1_" width="19" height="11.25"/>
	</defs>
	<clipPath id="SVGID_2_">
		<use xlink:href="#SVGID_1_"  overflow="visible"/>
	</clipPath>
	<g clip-path="url(#SVGID_2_)">
		<defs>
			<rect id="SVGID_3_" x="-90" y="-108.75" width="200" height="120"/>
		</defs>
		<clipPath id="SVGID_4_">
			<use xlink:href="#SVGID_3_"  overflow="visible"/>
		</clipPath>
		<g clip-path="url(#SVGID_4_)" enable-background="new    ">
			<g>
				<defs>
					<rect id="SVGID_5_" x="-90" y="-108.75" width="200" height="120"/>
				</defs>
				<clipPath id="SVGID_6_">
					<use xlink:href="#SVGID_5_"  overflow="visible"/>
				</clipPath>
				<g clip-path="url(#SVGID_6_)">
					<defs>
						<rect id="SVGID_7_" x="-497" y="-1034.75" width="1024" height="3000"/>
					</defs>
					<clipPath id="SVGID_8_">
						<use xlink:href="#SVGID_7_"  overflow="visible"/>
					</clipPath>
					<g clip-path="url(#SVGID_8_)">
						<defs>
							<path id="SVGID_9_" d="M-90-103.756c0-2.758,2.246-4.994,4.994-4.994h190.012c2.759,0,4.994,2.247,4.994,4.994V-3.744
								c0,2.758-2.247,4.994-4.999,4.994H20l-10,10l-10-10h-85c-2.761,0-5-2.247-5-4.994V-103.756z"/>
						</defs>
						<clipPath id="SVGID_10_">
							<use xlink:href="#SVGID_9_"  overflow="visible"/>
						</clipPath>
						<g clip-path="url(#SVGID_10_)">
							<defs>
								<rect id="SVGID_11_" x="-90" y="-108.75" width="200" height="120"/>
							</defs>
							<clipPath id="SVGID_12_">
								<use xlink:href="#SVGID_11_"  overflow="visible"/>
							</clipPath>
							<path clip-path="url(#SVGID_12_)" fill-rule="evenodd" clip-rule="evenodd" fill="#FFFFFF" d="M110-3.744
								c0,2.758-2.247,4.994-4.999,4.994H20l-10,10l-10-10h-85c-2.761,0-5-2.247-5-4.994H110z"/>
						</g>
					</g>
				</g>
				<g clip-path="url(#SVGID_6_)">
					<defs>
						<rect id="SVGID_13_" x="-497" y="-1034.75" width="1024" height="3000"/>
					</defs>
					<clipPath id="SVGID_14_">
						<use xlink:href="#SVGID_13_"  overflow="visible"/>
					</clipPath>
					<g clip-path="url(#SVGID_14_)">
						<defs>
							<path id="SVGID_15_" d="M-90-103.756c0-2.758,2.246-4.994,4.994-4.994h190.012c2.759,0,4.994,2.247,4.994,4.994V-3.744
								c0,2.758-2.247,4.994-4.999,4.994H20l-10,10l-10-10h-85c-2.761,0-5-2.247-5-4.994V-103.756z"/>
						</defs>
						<clipPath id="SVGID_16_">
							<use xlink:href="#SVGID_15_"  overflow="visible"/>
						</clipPath>
						<g clip-path="url(#SVGID_16_)">
							<defs>
								<rect id="SVGID_17_" x="-90" y="-108.75" width="200" height="120"/>
							</defs>
							<clipPath id="SVGID_18_">
								<use xlink:href="#SVGID_17_"  overflow="visible"/>
							</clipPath>
							<path opacity="0.2" clip-path="url(#SVGID_18_)" fill="none" stroke="#0098D6" stroke-width="2" stroke-miterlimit="10" d="
								M-90-103.756c0-2.758,2.246-4.994,4.994-4.994h190.012c2.759,0,4.994,2.247,4.994,4.994V-3.744
								c0,2.758-2.247,4.994-4.999,4.994H20l-10,10l-10-10h-85c-2.761,0-5-2.247-5-4.994V-103.756z"/>
						</g>
					</g>
				</g>
			</g>
		</g>
	</g>
</g>
</svg>
