<?xml version="1.0" encoding="utf-8"?>
<!-- Generator: Adobe Illustrator 16.0.0, SVG Export Plug-In . SVG Version: 6.00 Build 0)  -->
<!DOCTYPE svg PUBLIC "-//W3C//DTD SVG 1.1//EN" "http://www.w3.org/Graphics/SVG/1.1/DTD/svg11.dtd">
<svg version="1.1" id="Слой_1" xmlns="http://www.w3.org/2000/svg" xmlns:xlink="http://www.w3.org/1999/xlink" x="0px" y="0px"
	 width="202px" height="40px" viewBox="0 0 202 40" enable-background="new 0 0 202 40" xml:space="preserve">
<g enable-background="new    ">
	<g>
		<defs>
			<rect id="SVGID_1_" width="202" height="40"/>
		</defs>
		<clipPath id="SVGID_2_">
			<use xlink:href="#SVGID_1_"  overflow="visible"/>
		</clipPath>
		<g clip-path="url(#SVGID_2_)">
			<defs>
				<rect id="SVGID_3_" x="-27" y="-129" width="1024" height="4689"/>
			</defs>
			<clipPath id="SVGID_4_">
				<use xlink:href="#SVGID_3_"  overflow="visible"/>
			</clipPath>
			<g clip-path="url(#SVGID_4_)">
				<defs>
					<path id="SVGID_5_" d="M-0.5,5.005v29.99c0,3.043,2.461,5.505,5.5,5.505h182c2.932,0,6.53-1.976,8.102-4.448
						c0.051-0.073,0.159-0.236,0.311-0.467c0.252-0.384,0.532-0.818,0.835-1.298c0.862-1.369,1.725-2.817,2.53-4.279
						c0.599-1.086,1.143-2.139,1.62-3.146c1.348-2.842,2.103-5.174,2.103-6.861s-0.755-4.02-2.103-6.862
						c-0.478-1.007-1.021-2.06-1.62-3.146c-0.806-1.462-1.668-2.91-2.53-4.279c-0.303-0.479-0.583-0.915-0.835-1.298
						c-0.151-0.23-0.26-0.393-0.318-0.479C193.555,1.475,189.945-0.5,187-0.5H5C1.963-0.5-0.5,1.965-0.5,5.005z M0.5,5.005
						C0.5,2.517,2.515,0.5,5,0.5h182c2.603,0,5.891,1.799,7.256,3.981c0.066,0.098,0.172,0.256,0.32,0.482
						c0.249,0.378,0.526,0.809,0.824,1.282c0.854,1.354,1.706,2.785,2.502,4.229c0.589,1.069,1.123,2.104,1.592,3.091
						c1.288,2.718,2.006,4.935,2.006,6.434c0,1.499-0.718,3.716-2.006,6.434c-0.469,0.987-1.003,2.022-1.592,3.091
						c-0.796,1.444-1.648,2.876-2.502,4.229c-0.298,0.474-0.575,0.903-0.824,1.282c-0.148,0.227-0.254,0.385-0.311,0.467
						C192.87,37.699,189.59,39.5,187,39.5H5c-2.487,0-4.5-2.014-4.5-4.505V5.005z M-20.5-20.5h243v81h-243V-20.5z"/>
				</defs>
				<clipPath id="SVGID_6_">
					<use xlink:href="#SVGID_5_"  overflow="visible"/>
				</clipPath>
				<g clip-path="url(#SVGID_6_)">
					<defs>
						<path id="SVGID_7_" d="M0,5.005C0,2.241,2.239,0,5,0h182c2.762,0,6.216,1.876,7.68,4.216c0,0,7.32,10.786,7.32,15.784
							s-7.32,15.783-7.32,15.783C193.2,38.112,189.761,40,187,40H5c-2.761,0-5-2.236-5-5.005V5.005z"/>
					</defs>
					<clipPath id="SVGID_8_">
						<use xlink:href="#SVGID_7_"  overflow="visible"/>
					</clipPath>
					<g clip-path="url(#SVGID_8_)">
						<defs>
							<rect id="SVGID_9_" width="202" height="40"/>
						</defs>
						<clipPath id="SVGID_10_">
							<use xlink:href="#SVGID_9_"  overflow="visible"/>
						</clipPath>
						<path clip-path="url(#SVGID_10_)" fill-rule="evenodd" clip-rule="evenodd" fill="#FFFFFF" d="M0,5.005C0,2.241,2.239,0,5,0
							h182c2.762,0,6.216,1.876,7.68,4.216c0,0,7.32,10.786,7.32,15.784s-7.32,15.783-7.32,15.783C193.2,38.112,189.761,40,187,40H5
							c-2.761,0-5-2.236-5-5.005V5.005z"/>
					</g>
				</g>
			</g>
		</g>
		<g clip-path="url(#SVGID_2_)">
			<defs>
				<rect id="SVGID_11_" x="-27" y="-129" width="1024" height="4689"/>
			</defs>
			<clipPath id="SVGID_12_">
				<use xlink:href="#SVGID_11_"  overflow="visible"/>
			</clipPath>
			<g clip-path="url(#SVGID_12_)">
				<defs>
					<path id="SVGID_13_" d="M0,5.005C0,2.241,2.239,0,5,0h182c2.762,0,6.216,1.876,7.68,4.216c0,0,7.32,10.786,7.32,15.784
						s-7.32,15.783-7.32,15.783C193.2,38.112,189.761,40,187,40H5c-2.761,0-5-2.236-5-5.005V5.005z"/>
				</defs>
				<clipPath id="SVGID_14_">
					<use xlink:href="#SVGID_13_"  overflow="visible"/>
				</clipPath>
				<g clip-path="url(#SVGID_14_)">
					<defs>
						<rect id="SVGID_15_" width="202" height="40"/>
					</defs>
					<clipPath id="SVGID_16_">
						<use xlink:href="#SVGID_15_"  overflow="visible"/>
					</clipPath>
					<path clip-path="url(#SVGID_16_)" fill="none" stroke="#99D6EF" stroke-width="2" stroke-miterlimit="10" d="M0,5.005
						C0,2.241,2.239,0,5,0h182c2.762,0,6.216,1.876,7.68,4.216c0,0,7.32,10.786,7.32,15.784s-7.32,15.783-7.32,15.783
						C193.2,38.112,189.761,40,187,40H5c-2.761,0-5-2.236-5-5.005V5.005z"/>
				</g>
			</g>
		</g>
	</g>
</g>
</svg>
