<?xml version="1.0" encoding="utf-8"?>
<!-- Generator: Adobe Illustrator 16.0.0, SVG Export Plug-In . SVG Version: 6.00 Build 0)  -->
<!DOCTYPE svg PUBLIC "-//W3C//DTD SVG 1.1//EN" "http://www.w3.org/Graphics/SVG/1.1/DTD/svg11.dtd">
<svg version="1.1" id="Слой_1" xmlns="http://www.w3.org/2000/svg" xmlns:xlink="http://www.w3.org/1999/xlink" x="0px" y="0px"
	 width="224px" height="42px" viewBox="0 0 224 42" enable-background="new 0 0 224 42" xml:space="preserve">
<g enable-background="new    ">
	<g>
		<defs>
			<rect id="SVGID_1_" width="224" height="42"/>
		</defs>
		<clipPath id="SVGID_2_">
			<use xlink:href="#SVGID_1_"  overflow="visible"/>
		</clipPath>
		<g clip-path="url(#SVGID_2_)">
			<defs>
				<rect id="SVGID_3_" x="-582" y="-128" width="1024" height="4689"/>
			</defs>
			<clipPath id="SVGID_4_">
				<use xlink:href="#SVGID_3_"  overflow="visible"/>
			</clipPath>
			<g clip-path="url(#SVGID_4_)">
				<defs>
					<path id="SVGID_5_" d="M0.5,6.005v29.99c0,3.043,2.463,5.505,5.505,5.505h201.989c2.938,0,6.535-1.974,8.107-4.448
						c0.051-0.073,0.159-0.236,0.311-0.467c0.252-0.384,0.532-0.818,0.835-1.298c0.862-1.369,1.725-2.817,2.53-4.279
						c0.599-1.086,1.143-2.139,1.62-3.146c1.348-2.842,2.103-5.174,2.103-6.861s-0.755-4.02-2.103-6.862
						c-0.478-1.007-1.021-2.06-1.62-3.146c-0.806-1.462-1.668-2.91-2.53-4.279c-0.303-0.479-0.583-0.915-0.835-1.298
						c-0.151-0.23-0.26-0.393-0.318-0.479c-1.539-2.461-5.15-4.436-8.1-4.436H6.005C2.962,0.5,0.5,2.963,0.5,6.005z"/>
				</defs>
				<clipPath id="SVGID_6_">
					<use xlink:href="#SVGID_5_"  overflow="visible"/>
				</clipPath>
				<g clip-path="url(#SVGID_6_)">
					<defs>
						<rect id="SVGID_7_" width="224" height="42"/>
					</defs>
					<clipPath id="SVGID_8_">
						<use xlink:href="#SVGID_7_"  overflow="visible"/>
					</clipPath>
					<rect x="-4" y="-4" clip-path="url(#SVGID_8_)" fill="#E3EEF9" width="232" height="50"/>
				</g>
			</g>
		</g>
		<g clip-path="url(#SVGID_2_)">
			<defs>
				<rect id="SVGID_9_" x="-582" y="-128" width="1024" height="4689"/>
			</defs>
			<clipPath id="SVGID_10_">
				<use xlink:href="#SVGID_9_"  overflow="visible"/>
			</clipPath>
			<g clip-path="url(#SVGID_10_)">
				<defs>
					<path id="SVGID_11_" d="M1,6.005C1,3.241,3.237,1,6.005,1h201.989c2.765,0,6.222,1.876,7.686,4.216
						c0,0,7.32,10.786,7.32,15.784s-7.32,15.783-7.32,15.783C214.2,39.112,210.763,41,207.994,41H6.005C3.241,41,1,38.764,1,35.995
						V6.005z M-10-10h244v62H-10V-10z"/>
				</defs>
				<clipPath id="SVGID_12_">
					<use xlink:href="#SVGID_11_"  overflow="visible"/>
				</clipPath>
				<g clip-path="url(#SVGID_12_)">
					<defs>
						<rect id="SVGID_13_" width="224" height="42"/>
					</defs>
					<clipPath id="SVGID_14_">
						<use xlink:href="#SVGID_13_"  overflow="visible"/>
					</clipPath>
					<path clip-path="url(#SVGID_14_)" fill="none" stroke="#FFFFFF" stroke-width="2" stroke-miterlimit="10" d="M1,6.005
						C1,3.241,3.237,1,6.005,1h201.989c2.765,0,6.222,1.876,7.686,4.216c0,0,7.32,10.786,7.32,15.784s-7.32,15.783-7.32,15.783
						C214.2,39.112,210.763,41,207.994,41H6.005C3.241,41,1,38.764,1,35.995V6.005z"/>
				</g>
			</g>
		</g>
	</g>
</g>
<g enable-background="new    ">
	<g>
		<defs>
			<rect id="SVGID_15_" x="-374" y="-2193" width="202" height="40"/>
		</defs>
		<clipPath id="SVGID_16_">
			<use xlink:href="#SVGID_15_"  overflow="visible"/>
		</clipPath>
		<g clip-path="url(#SVGID_16_)">
			<defs>
				<rect id="SVGID_17_" x="-401" y="-2322" width="1024" height="4689"/>
			</defs>
			<clipPath id="SVGID_18_">
				<use xlink:href="#SVGID_17_"  overflow="visible"/>
			</clipPath>
			<g clip-path="url(#SVGID_18_)">
				<defs>
					<path id="SVGID_19_" d="M-374.5-2187.995v29.99c0,3.043,2.461,5.505,5.5,5.505h182c2.932,0,6.53-1.976,8.102-4.448
						c0.051-0.073,0.159-0.236,0.311-0.467c0.252-0.384,0.532-0.818,0.835-1.298c0.862-1.369,1.725-2.817,2.53-4.279
						c0.599-1.086,1.143-2.139,1.62-3.146c1.348-2.842,2.103-5.174,2.103-6.861s-0.755-4.02-2.103-6.862
						c-0.478-1.007-1.021-2.06-1.62-3.146c-0.806-1.462-1.668-2.91-2.53-4.279c-0.303-0.479-0.583-0.915-0.835-1.298
						c-0.151-0.23-0.26-0.393-0.318-0.479c-1.539-2.461-5.148-4.436-8.094-4.436h-182
						C-372.037-2193.5-374.5-2191.035-374.5-2187.995z M-373.5-2187.995c0-2.488,2.015-4.505,4.5-4.505h182
						c2.603,0,5.891,1.799,7.256,3.981c0.066,0.098,0.172,0.256,0.32,0.482c0.249,0.378,0.526,0.809,0.824,1.282
						c0.854,1.354,1.706,2.785,2.502,4.229c0.589,1.069,1.123,2.104,1.592,3.091c1.288,2.718,2.006,4.935,2.006,6.434
						c0,1.499-0.718,3.716-2.006,6.434c-0.469,0.987-1.003,2.022-1.592,3.091c-0.796,1.444-1.648,2.876-2.502,4.229
						c-0.298,0.474-0.575,0.903-0.824,1.282c-0.148,0.227-0.254,0.385-0.311,0.467c-1.396,2.196-4.676,3.997-7.266,3.997h-182
						c-2.487,0-4.5-2.014-4.5-4.505V-2187.995z M-394.5-2213.5h243v81h-243V-2213.5z"/>
				</defs>
				<clipPath id="SVGID_20_">
					<use xlink:href="#SVGID_19_"  overflow="visible"/>
				</clipPath>
				<g clip-path="url(#SVGID_20_)">
					<defs>
						<path id="SVGID_21_" d="M-374-2187.995c0-2.765,2.239-5.005,5-5.005h182c2.762,0,6.216,1.876,7.68,4.216
							c0,0,7.32,10.786,7.32,15.784s-7.32,15.783-7.32,15.783c-1.479,2.329-4.919,4.217-7.68,4.217h-182c-2.761,0-5-2.236-5-5.005
							V-2187.995z"/>
					</defs>
					<clipPath id="SVGID_22_">
						<use xlink:href="#SVGID_21_"  overflow="visible"/>
					</clipPath>
					<g clip-path="url(#SVGID_22_)">
						<defs>
							<rect id="SVGID_23_" x="-374" y="-2193" width="202" height="40"/>
						</defs>
						<clipPath id="SVGID_24_">
							<use xlink:href="#SVGID_23_"  overflow="visible"/>
						</clipPath>
						<path clip-path="url(#SVGID_24_)" fill-rule="evenodd" clip-rule="evenodd" fill="#FFFFFF" d="M-374-2187.995
							c0-2.765,2.239-5.005,5-5.005h182c2.762,0,6.216,1.876,7.68,4.216c0,0,7.32,10.786,7.32,15.784s-7.32,15.783-7.32,15.783
							c-1.479,2.329-4.919,4.217-7.68,4.217h-182c-2.761,0-5-2.236-5-5.005V-2187.995z"/>
					</g>
				</g>
			</g>
		</g>
		<g clip-path="url(#SVGID_16_)">
			<defs>
				<rect id="SVGID_25_" x="-401" y="-2322" width="1024" height="4689"/>
			</defs>
			<clipPath id="SVGID_26_">
				<use xlink:href="#SVGID_25_"  overflow="visible"/>
			</clipPath>
			<g clip-path="url(#SVGID_26_)">
				<defs>
					<path id="SVGID_27_" d="M-374-2187.995c0-2.765,2.239-5.005,5-5.005h182c2.762,0,6.216,1.876,7.68,4.216
						c0,0,7.32,10.786,7.32,15.784s-7.32,15.783-7.32,15.783c-1.479,2.329-4.919,4.217-7.68,4.217h-182c-2.761,0-5-2.236-5-5.005
						V-2187.995z"/>
				</defs>
				<clipPath id="SVGID_28_">
					<use xlink:href="#SVGID_27_"  overflow="visible"/>
				</clipPath>
				<g clip-path="url(#SVGID_28_)">
					<defs>
						<rect id="SVGID_29_" x="-374" y="-2193" width="202" height="40"/>
					</defs>
					<clipPath id="SVGID_30_">
						<use xlink:href="#SVGID_29_"  overflow="visible"/>
					</clipPath>
					<path clip-path="url(#SVGID_30_)" fill="none" stroke="#99D6EF" stroke-width="2" stroke-miterlimit="10" d="M-374-2187.995
						c0-2.765,2.239-5.005,5-5.005h182c2.762,0,6.216,1.876,7.68,4.216c0,0,7.32,10.786,7.32,15.784s-7.32,15.783-7.32,15.783
						c-1.479,2.329-4.919,4.217-7.68,4.217h-182c-2.761,0-5-2.236-5-5.005V-2187.995z"/>
				</g>
			</g>
		</g>
	</g>
</g>
</svg>
