<?xml version="1.0" encoding="UTF-8"?>
<svg xmlns="http://www.w3.org/2000/svg" xmlns:xlink="http://www.w3.org/1999/xlink" width="14pt" height="14pt" viewBox="0 0 14 14" version="1.1">
<defs>
<clipPath id="clip2">
  <path d="M 7 2 C 9.757812 2 12 4.242188 12 7 C 12 9.757812 9.757812 12 7 12 C 4.242188 12 2 9.757812 2 7 C 2 4.242188 4.242188 2 7 2 M 7 0 C 3.132812 0 0 3.132812 0 7 C 0 10.867188 3.132812 14 7 14 C 10.867188 14 14 10.867188 14 7 C 14 3.132812 10.867188 0 7 0 "/>
</clipPath>
<clipPath id="clip3">
  <path d="M 6 3 L 8 3 L 8 5 L 6 5 Z M 6 3 "/>
</clipPath>
<clipPath id="clip4">
  <path d="M 7 5 C 6.449219 5 6 4.550781 6 4 C 6 3.449219 6.449219 3 7 3 C 7.550781 3 8 3.449219 8 4 C 8 4.550781 7.550781 5 7 5 "/>
</clipPath>
<clipPath id="clip5">
  <path d="M 6 6 L 8 6 L 8 11 L 6 11 Z M 6 6 "/>
</clipPath>
<clipPath id="clip6">
  <path d="M 8 10 C 8 10.554688 7.554688 11 7 11 C 6.445312 11 6 10.554688 6 10 L 6 7 C 6 6.445312 6.445312 6 7 6 C 7.554688 6 8 6.445312 8 7 L 8 10 "/>
</clipPath>
<clipPath id="clip1">
  <rect width="14" height="14"/>
</clipPath>
<g id="surface4" clip-path="url(#clip1)">
<g clip-path="url(#clip2)" clip-rule="evenodd">
<rect x="0" y="0" width="14" height="14" style="fill:rgb(0%,59.608459%,83.921814%);fill-opacity:1;stroke:none;"/>
</g>
<g clip-path="url(#clip3)" clip-rule="nonzero">
<g clip-path="url(#clip4)" clip-rule="evenodd">
<path style=" stroke:none;fill-rule:nonzero;fill:rgb(0%,59.608459%,83.921814%);fill-opacity:1;" d="M 1 -2 L 13 -2 L 13 10 L 1 10 Z M 1 -2 "/>
</g>
</g>
<g clip-path="url(#clip5)" clip-rule="nonzero">
<g clip-path="url(#clip6)" clip-rule="evenodd">
<path style=" stroke:none;fill-rule:nonzero;fill:rgb(0%,59.608459%,83.921814%);fill-opacity:1;" d="M 1 1 L 13 1 L 13 16 L 1 16 Z M 1 1 "/>
</g>
</g>
</g>
</defs>
<g id="surface1">
<use xlink:href="#surface4"/>
</g>
</svg>
