<?xml version="1.0" encoding="UTF-8" standalone="no"?>
<svg width="80px" height="80px" viewBox="0 0 80 80" version="1.1" xmlns="http://www.w3.org/2000/svg" xmlns:xlink="http://www.w3.org/1999/xlink" xmlns:sketch="http://www.bohemiancoding.com/sketch/ns">
    <!-- Generator: Sketch 3.4 (15575) - http://www.bohemiancoding.com/sketch -->
    <title>ico-insurance</title>
    <desc>Created with Sketch.</desc>
    <defs></defs>
    <g id="Page-1" stroke="none" stroke-width="1" fill="none" fill-rule="evenodd" sketch:type="MSPage">
        <g id="insurance" sketch:type="MSArtboardGroup" transform="translate(-68.000000, -309.000000)">
            <g id="Cтрахование-+-Воспользуйтесь-страх" sketch:type="MSLayerGroup" transform="translate(30.000000, 163.000000)">
                <g id="Oval-115-+-Imported-Layers" transform="translate(0.000000, 146.000000)" sketch:type="MSShapeGroup">
                    <g id="Imported-Layers-Copy-11-+-Oval-115-+-Imported-Layers" transform="translate(38.000000, 0.000000)">
                        <g id="ico-insurance">
                            <circle id="Oval-115" fill="#0098D6" cx="40" cy="40" r="40"></circle>
                            <g id="Imported-Layers" transform="translate(40.000000, 40.000000) scale(-1, 1) translate(-40.000000, -40.000000) translate(19.000000, 17.000000)" fill="#FFFFFF">
                                <path d="M41,22 C40.447,22 40,21.552 40,21 C40,18.794 38.206,17 36,17 C33.794,17 32,18.794 32,21 C32,21.552 31.553,22 31,22 C30.447,22 30,21.552 30,21 C30,18.794 28.206,17 26,17 C23.794,17 22,18.794 22,21 C22,21.552 21.553,22 21,22 C20.447,22 20,21.552 20,21 C20,18.794 18.206,17 16,17 C13.794,17 12,18.794 12,21 C12,21.552 11.553,22 11,22 C10.447,22 10,21.552 10,21 C10,18.794 8.206,17 6,17 C3.794,17 2,18.794 2,21 C2,21.552 1.553,22 1,22 C0.447,22 0,21.552 0,21 C0,9.42 9.421,0 21,0 C32.579,0 42,9.42 42,21 C42,21.552 41.553,22 41,22 L41,22 Z M26,15 C28.085,15 29.924,16.068 31,17.687 C32.076,16.068 33.915,15 36,15 C37.234,15 38.382,15.375 39.337,16.016 C37.142,7.949 29.753,2 21,2 C12.247,2 4.858,7.949 2.663,16.016 C3.618,15.375 4.766,15 6,15 C8.085,15 9.924,16.068 11,17.687 C12.076,16.068 13.915,15 16,15 C18.085,15 19.924,16.068 21,17.687 C22.076,16.068 23.915,15 26,15 L26,15 Z" id="Fill-1"></path>
                                <path d="M21,41 C20.447,41 20,40.552 20,40 L20,21 C20,20.448 20.447,20 21,20 C21.553,20 22,20.448 22,21 L22,40 C22,40.552 21.553,41 21,41" id="Fill-2"></path>
                                <path d="M16,46 C12.691,46 10,43.309 10,40 C10,39.448 10.447,39 11,39 C11.553,39 12,39.448 12,40 C12,42.206 13.794,44 16,44 C18.206,44 20,42.206 20,40 C20,39.448 20.447,39 21,39 C21.553,39 22,39.448 22,40 C22,43.309 19.309,46 16,46" id="Fill-3"></path>
                            </g>
                        </g>
                    </g>
                </g>
            </g>
        </g>
    </g>
</svg>