<?xml version="1.0" encoding="UTF-8"?>
<svg xmlns="http://www.w3.org/2000/svg" xmlns:xlink="http://www.w3.org/1999/xlink" width="144.001pt" height="86.1626pt" viewBox="0 0 144.001 86.1626" version="1.1">
<defs>
<clipPath id="clip1">
  <path d="M 0 0 L 87 0 L 87 86.164062 L 0 86.164062 Z M 0 0 "/>
</clipPath>
<clipPath id="clip2">
  <path d="M 58 0 L 144 0 L 144 86.164062 L 58 86.164062 Z M 58 0 "/>
</clipPath>
</defs>
<g id="surface1">
<g clip-path="url(#clip1)" clip-rule="nonzero">
<path style=" stroke:none;fill-rule:nonzero;fill:rgb(93.333435%,19.999695%,21.960449%);fill-opacity:1;" d="M 86.164062 43.082031 C 86.164062 66.875 66.875 86.164062 43.082031 86.164062 C 19.285156 86.164062 0 66.875 0 43.082031 C 0 19.289062 19.285156 0 43.082031 0 C 66.875 0 86.164062 19.289062 86.164062 43.082031 "/>
</g>
<g clip-path="url(#clip2)" clip-rule="nonzero">
<path style=" stroke:none;fill-rule:nonzero;fill:rgb(98.039246%,66.275024%,19.607544%);fill-opacity:1;" d="M 100.917969 0 C 89.789062 0 79.644531 4.222656 72 11.152344 C 70.441406 12.5625 68.988281 14.089844 67.648438 15.710938 L 76.351562 15.710938 C 77.542969 17.160156 78.636719 18.679688 79.636719 20.273438 L 64.363281 20.273438 C 63.449219 21.738281 62.617188 23.261719 61.882812 24.835938 L 82.117188 24.835938 C 82.808594 26.3125 83.417969 27.835938 83.941406 29.398438 L 60.058594 29.398438 C 59.558594 30.882812 59.140625 32.40625 58.804688 33.960938 L 85.191406 33.960938 C 85.824219 36.898438 86.164062 39.953125 86.164062 43.082031 C 86.164062 47.867188 85.382812 52.46875 83.941406 56.765625 L 60.058594 56.765625 C 60.582031 58.328125 61.191406 59.851562 61.882812 61.328125 L 82.117188 61.328125 C 81.378906 62.902344 80.550781 64.425781 79.632812 65.890625 L 64.363281 65.890625 C 65.363281 67.484375 66.460938 69.007812 67.648438 70.449219 L 76.351562 70.449219 C 75.011719 72.074219 73.558594 73.601562 72 75.011719 C 79.644531 81.941406 89.789062 86.164062 100.917969 86.164062 C 124.710938 86.164062 144 66.875 144 43.082031 C 144 19.289062 124.710938 0 100.917969 0 "/>
</g>
<path style=" stroke:none;fill-rule:nonzero;fill:rgb(21.568298%,20.783997%,20.783997%);fill-opacity:1;" d="M 139.460938 67.011719 L 139.621094 67.011719 C 139.679688 67.011719 139.742188 67.019531 139.792969 66.988281 C 139.839844 66.960938 139.863281 66.902344 139.863281 66.847656 C 139.863281 66.800781 139.835938 66.75 139.796875 66.726562 C 139.746094 66.695312 139.667969 66.703125 139.613281 66.703125 L 139.460938 66.703125 Z M 139.460938 67.707031 L 139.175781 67.707031 L 139.175781 66.484375 L 139.695312 66.484375 C 139.800781 66.484375 139.910156 66.484375 140.003906 66.546875 C 140.105469 66.613281 140.160156 66.730469 140.160156 66.851562 C 140.160156 66.988281 140.078125 67.117188 139.949219 67.167969 L 140.171875 67.707031 L 139.855469 67.707031 L 139.671875 67.222656 L 139.460938 67.222656 Z M 139.652344 68.152344 C 140.234375 68.152344 140.707031 67.679688 140.707031 67.09375 C 140.707031 66.511719 140.234375 66.039062 139.652344 66.039062 C 139.066406 66.039062 138.59375 66.511719 138.59375 67.09375 C 138.59375 67.679688 139.066406 68.152344 139.652344 68.152344 M 138.257812 67.09375 C 138.257812 66.328125 138.878906 65.703125 139.652344 65.703125 C 140.417969 65.703125 141.039062 66.328125 141.039062 67.09375 C 141.039062 67.863281 140.417969 68.488281 139.652344 68.488281 C 138.878906 68.488281 138.257812 67.863281 138.257812 67.09375 "/>
<path style=" stroke:none;fill-rule:nonzero;fill:rgb(21.568298%,20.783997%,20.783997%);fill-opacity:1;" d="M 36.421875 55.71875 L 32.546875 55.71875 L 32.636719 53.875 C 31.453125 55.332031 29.878906 56.023438 27.734375 56.023438 C 25.199219 56.023438 23.460938 54.042969 23.460938 51.167969 C 23.460938 46.84375 26.484375 44.316406 31.671875 44.316406 C 32.203125 44.316406 32.882812 44.367188 33.578125 44.457031 C 33.722656 43.871094 33.761719 43.617188 33.761719 43.304688 C 33.761719 42.125 32.949219 41.6875 30.761719 41.6875 C 28.472656 41.660156 26.589844 42.230469 25.8125 42.484375 C 25.863281 42.191406 26.460938 38.488281 26.460938 38.488281 C 28.792969 37.804688 30.328125 37.546875 32.058594 37.546875 C 36.074219 37.546875 38.203125 39.351562 38.199219 42.757812 C 38.207031 43.671875 38.054688 44.800781 37.820312 46.28125 C 37.414062 48.855469 36.542969 54.371094 36.421875 55.71875 M 33.019531 47.796875 C 32.53125 47.742188 32.3125 47.726562 31.976562 47.726562 C 29.328125 47.726562 27.984375 48.636719 27.984375 50.429688 C 27.984375 51.539062 28.640625 52.242188 29.660156 52.242188 C 31.566406 52.242188 32.941406 50.425781 33.019531 47.796875 "/>
<path style=" stroke:none;fill-rule:nonzero;fill:rgb(21.568298%,20.783997%,20.783997%);fill-opacity:1;" d="M 21.503906 55.71875 L 16.828125 55.71875 L 19.507812 38.917969 L 13.523438 55.71875 L 10.339844 55.71875 L 9.945312 39.015625 L 7.125 55.71875 L 2.75 55.71875 L 6.40625 33.863281 L 13.132812 33.863281 L 13.539062 46.097656 L 17.640625 33.863281 L 25.121094 33.863281 Z M 21.503906 55.71875 "/>
<path style=" stroke:none;fill-rule:nonzero;fill:rgb(21.568298%,20.783997%,20.783997%);fill-opacity:1;" d="M 110.101562 55.71875 L 106.226562 55.71875 L 106.316406 53.875 C 105.132812 55.332031 103.554688 56.023438 101.414062 56.023438 C 98.878906 56.023438 97.140625 54.042969 97.140625 51.167969 C 97.140625 46.84375 100.164062 44.316406 105.351562 44.316406 C 105.882812 44.316406 106.5625 44.367188 107.257812 44.457031 C 107.402344 43.871094 107.441406 43.617188 107.441406 43.304688 C 107.441406 42.125 106.625 41.6875 104.441406 41.6875 C 102.152344 41.660156 100.269531 42.230469 99.492188 42.484375 C 99.539062 42.191406 100.140625 38.488281 100.140625 38.488281 C 102.472656 37.804688 104.007812 37.546875 105.734375 37.546875 C 109.753906 37.546875 111.878906 39.351562 111.875 42.757812 C 111.882812 43.671875 111.734375 44.800781 111.5 46.28125 C 111.09375 48.855469 110.21875 54.371094 110.101562 55.71875 M 106.699219 47.796875 C 106.210938 47.742188 105.992188 47.726562 105.65625 47.726562 C 103.007812 47.726562 101.664062 48.636719 101.664062 50.429688 C 101.664062 51.539062 102.320312 52.242188 103.339844 52.242188 C 105.246094 52.242188 106.621094 50.425781 106.699219 47.796875 "/>
<path style=" stroke:none;fill-rule:nonzero;fill:rgb(21.568298%,20.783997%,20.783997%);fill-opacity:1;" d="M 57.207031 55.449219 C 55.929688 55.851562 54.929688 56.023438 53.847656 56.023438 C 51.457031 56.023438 50.152344 54.648438 50.152344 52.121094 C 50.117188 51.335938 50.496094 49.269531 50.792969 47.382812 C 51.0625 45.722656 52.820312 35.253906 52.820312 35.253906 L 57.46875 35.253906 L 56.925781 37.945312 L 59.734375 37.945312 L 59.101562 42.214844 L 56.285156 42.214844 C 55.742188 45.597656 54.972656 49.804688 54.964844 50.363281 C 54.964844 51.28125 55.453125 51.679688 56.566406 51.679688 C 57.097656 51.679688 57.511719 51.625 57.828125 51.511719 Z M 57.207031 55.449219 "/>
<path style=" stroke:none;fill-rule:nonzero;fill:rgb(21.568298%,20.783997%,20.783997%);fill-opacity:1;" d="M 68.847656 44.765625 C 68.875 44.398438 69.34375 41.59375 66.6875 41.59375 C 65.207031 41.59375 64.144531 42.722656 63.714844 44.765625 Z M 71.460938 55.304688 C 69.867188 55.792969 68.324219 56.027344 66.691406 56.023438 C 61.488281 56.019531 58.773438 53.300781 58.773438 48.09375 C 58.773438 42.019531 62.226562 37.546875 66.910156 37.546875 C 70.742188 37.546875 73.191406 40.050781 73.191406 43.980469 C 73.191406 45.28125 73.023438 46.554688 72.617188 48.351562 L 63.359375 48.351562 C 63.046875 50.929688 64.699219 52.003906 67.402344 52.003906 C 69.066406 52.003906 70.566406 51.660156 72.234375 50.882812 Z M 71.460938 55.304688 "/>
<path style=" stroke:none;fill-rule:nonzero;fill:rgb(21.568298%,20.783997%,20.783997%);fill-opacity:1;" d="M 39.226562 43.5625 C 39.226562 45.8125 40.316406 47.359375 42.789062 48.523438 C 44.683594 49.414062 44.976562 49.679688 44.976562 50.484375 C 44.976562 51.59375 44.140625 52.09375 42.289062 52.09375 C 40.894531 52.09375 39.597656 51.875 38.101562 51.394531 C 38.101562 51.394531 37.484375 55.308594 37.457031 55.496094 C 38.519531 55.730469 39.46875 55.945312 42.324219 56.023438 C 47.257812 56.023438 49.539062 54.144531 49.539062 50.082031 C 49.539062 47.640625 48.585938 46.207031 46.242188 45.132812 C 44.28125 44.230469 44.054688 44.03125 44.054688 43.199219 C 44.054688 42.238281 44.832031 41.75 46.34375 41.75 C 47.261719 41.75 48.515625 41.847656 49.707031 42.015625 L 50.371094 37.894531 C 49.160156 37.703125 47.324219 37.546875 46.253906 37.546875 C 41.023438 37.546875 39.210938 40.28125 39.226562 43.5625 "/>
<path style=" stroke:none;fill-rule:nonzero;fill:rgb(21.568298%,20.783997%,20.783997%);fill-opacity:1;" d="M 94.207031 38.015625 C 95.507812 38.015625 96.71875 38.355469 98.386719 39.195312 L 99.152344 34.453125 C 98.46875 34.183594 96.054688 32.605469 94.011719 32.605469 C 90.882812 32.605469 88.238281 34.15625 86.375 36.722656 C 83.660156 35.824219 82.546875 37.640625 81.175781 39.449219 L 79.960938 39.730469 C 80.054688 39.136719 80.136719 38.542969 80.109375 37.945312 L 75.8125 37.945312 C 75.226562 43.445312 74.1875 49.015625 73.375 54.523438 L 73.160156 55.71875 L 77.839844 55.71875 C 78.621094 50.644531 79.050781 47.394531 79.308594 45.195312 L 81.070312 44.214844 C 81.335938 43.234375 82.160156 42.90625 83.8125 42.945312 C 83.59375 44.105469 83.476562 45.328125 83.476562 46.589844 C 83.476562 52.402344 86.617188 56.023438 91.652344 56.023438 C 92.949219 56.023438 94.0625 55.851562 95.785156 55.386719 L 96.605469 50.402344 C 95.058594 51.167969 93.785156 51.527344 92.632812 51.527344 C 89.914062 51.527344 88.269531 49.519531 88.269531 46.203125 C 88.269531 41.390625 90.714844 38.015625 94.207031 38.015625 "/>
<path style=" stroke:none;fill-rule:nonzero;fill:rgb(21.568298%,20.783997%,20.783997%);fill-opacity:1;" d="M 127.957031 51.609375 C 126.363281 51.609375 125.5625 50.433594 125.5625 48.105469 C 125.5625 44.613281 127.066406 42.136719 129.1875 42.136719 C 130.792969 42.136719 131.664062 43.363281 131.664062 45.621094 C 131.664062 49.140625 130.136719 51.609375 127.957031 51.609375 M 133.804688 33.863281 L 132.769531 40.179688 C 131.488281 38.496094 130.117188 37.277344 128.300781 37.277344 C 125.941406 37.277344 123.792969 39.066406 122.386719 41.699219 C 120.429688 41.292969 118.40625 40.605469 118.40625 40.605469 L 118.402344 40.621094 C 118.5625 39.148438 118.625 38.25 118.609375 37.945312 L 114.316406 37.945312 C 113.730469 43.445312 112.6875 49.015625 111.875 54.523438 L 111.664062 55.71875 L 116.339844 55.71875 C 116.972656 51.613281 117.457031 48.207031 117.8125 45.503906 C 119.410156 44.0625 120.210938 42.800781 121.824219 42.886719 C 121.109375 44.613281 120.691406 46.605469 120.691406 48.648438 C 120.691406 53.09375 122.941406 56.023438 126.339844 56.023438 C 128.054688 56.023438 129.367188 55.433594 130.652344 54.0625 L 130.429688 55.714844 L 134.855469 55.714844 L 138.417969 33.863281 Z M 133.804688 33.863281 "/>
<path style=" stroke:none;fill-rule:nonzero;fill:rgb(100%,100%,100%);fill-opacity:1;" d="M 22.851562 54.417969 L 18.171875 54.417969 L 20.855469 37.621094 L 14.871094 54.417969 L 11.683594 54.417969 L 11.289062 37.71875 L 8.472656 54.417969 L 4.09375 54.417969 L 7.753906 32.570312 L 14.476562 32.570312 L 14.664062 46.097656 L 19.203125 32.570312 L 26.46875 32.570312 Z M 22.851562 54.417969 "/>
<path style=" stroke:none;fill-rule:nonzero;fill:rgb(100%,100%,100%);fill-opacity:1;" d="M 37.769531 54.417969 L 33.894531 54.417969 L 33.984375 52.582031 C 32.800781 54.035156 31.222656 54.726562 29.082031 54.726562 C 26.546875 54.726562 24.808594 52.75 24.808594 49.875 C 24.808594 45.546875 27.832031 43.023438 33.019531 43.023438 C 33.550781 43.023438 34.230469 43.070312 34.925781 43.160156 C 35.070312 42.574219 35.109375 42.324219 35.109375 42.007812 C 35.109375 40.828125 34.292969 40.390625 32.109375 40.390625 C 29.820312 40.367188 27.933594 40.9375 27.15625 41.1875 C 27.207031 40.894531 27.808594 37.195312 27.808594 37.195312 C 30.136719 36.507812 31.675781 36.253906 33.402344 36.253906 C 37.421875 36.253906 39.546875 38.054688 39.542969 41.460938 C 39.550781 42.378906 39.398438 43.503906 39.164062 44.984375 C 38.757812 47.558594 37.886719 53.078125 37.769531 54.417969 M 34.367188 46.503906 C 33.875 46.445312 33.660156 46.429688 33.324219 46.429688 C 30.671875 46.429688 29.332031 47.339844 29.332031 49.136719 C 29.332031 50.242188 29.984375 50.945312 31.007812 50.945312 C 32.914062 50.945312 34.285156 49.132812 34.367188 46.503906 "/>
<path style=" stroke:none;fill-rule:nonzero;fill:rgb(100%,100%,100%);fill-opacity:1;" d="M 100.5 33.15625 L 99.734375 37.902344 C 98.066406 37.0625 96.851562 36.722656 95.554688 36.722656 C 92.0625 36.722656 89.617188 40.09375 89.617188 44.90625 C 89.617188 48.222656 91.261719 50.230469 93.976562 50.230469 C 95.132812 50.230469 96.402344 49.871094 97.953125 49.105469 L 97.132812 54.085938 C 95.40625 54.558594 94.296875 54.726562 92.996094 54.726562 C 87.964844 54.726562 84.824219 51.109375 84.824219 45.292969 C 84.824219 37.484375 89.160156 32.023438 95.359375 32.023438 C 97.402344 32.023438 99.8125 32.886719 100.5 33.15625 "/>
<path style=" stroke:none;fill-rule:nonzero;fill:rgb(100%,100%,100%);fill-opacity:1;" d="M 111.449219 54.417969 L 107.574219 54.417969 L 107.660156 52.582031 C 106.480469 54.035156 104.902344 54.726562 102.761719 54.726562 C 100.226562 54.726562 98.488281 52.75 98.488281 49.875 C 98.488281 45.546875 101.511719 43.023438 106.699219 43.023438 C 107.230469 43.023438 107.910156 43.070312 108.605469 43.160156 C 108.75 42.574219 108.789062 42.324219 108.789062 42.007812 C 108.789062 40.828125 107.972656 40.390625 105.789062 40.390625 C 103.5 40.367188 101.613281 40.9375 100.835938 41.1875 C 100.886719 40.894531 101.488281 37.195312 101.488281 37.195312 C 103.816406 36.507812 105.355469 36.253906 107.082031 36.253906 C 111.101562 36.253906 113.226562 38.054688 113.222656 41.460938 C 113.230469 42.378906 113.078125 43.503906 112.84375 44.984375 C 112.4375 47.558594 111.566406 53.078125 111.449219 54.417969 M 108.046875 46.503906 C 107.554688 46.445312 107.339844 46.429688 107.003906 46.429688 C 104.351562 46.429688 103.011719 47.339844 103.011719 49.136719 C 103.011719 50.242188 103.664062 50.945312 104.6875 50.945312 C 106.59375 50.945312 107.964844 49.132812 108.046875 46.503906 "/>
<path style=" stroke:none;fill-rule:nonzero;fill:rgb(100%,100%,100%);fill-opacity:1;" d="M 58.554688 54.152344 C 57.273438 54.554688 56.277344 54.726562 55.195312 54.726562 C 52.804688 54.726562 51.5 53.355469 51.5 50.824219 C 51.464844 50.039062 51.84375 47.972656 52.140625 46.085938 C 52.410156 44.425781 54.167969 33.960938 54.167969 33.960938 L 58.816406 33.960938 L 58.273438 36.648438 L 60.660156 36.648438 L 60.023438 40.917969 L 57.628906 40.917969 C 57.089844 44.300781 56.320312 48.507812 56.3125 49.066406 C 56.3125 49.984375 56.800781 50.382812 57.914062 50.382812 C 58.445312 50.382812 58.859375 50.332031 59.171875 50.21875 Z M 58.554688 54.152344 "/>
<path style=" stroke:none;fill-rule:nonzero;fill:rgb(100%,100%,100%);fill-opacity:1;" d="M 70.195312 43.46875 C 70.222656 43.101562 70.6875 40.296875 68.03125 40.296875 C 66.550781 40.296875 65.492188 41.429688 65.0625 43.46875 Z M 72.808594 54.007812 C 71.210938 54.496094 69.667969 54.730469 68.039062 54.726562 C 62.832031 54.722656 60.121094 52.003906 60.121094 46.800781 C 60.121094 40.722656 63.570312 36.253906 68.257812 36.253906 C 72.089844 36.253906 74.539062 38.753906 74.539062 42.683594 C 74.539062 43.988281 74.371094 45.261719 73.964844 47.054688 L 64.707031 47.054688 C 64.394531 49.632812 66.042969 50.707031 68.75 50.707031 C 70.410156 50.707031 71.914062 50.363281 73.582031 49.585938 Z M 72.808594 54.007812 "/>
<path style=" stroke:none;fill-rule:nonzero;fill:rgb(100%,100%,100%);fill-opacity:1;" d="M 40.574219 42.269531 C 40.574219 44.515625 41.664062 46.0625 44.136719 47.230469 C 46.03125 48.121094 46.324219 48.386719 46.324219 49.191406 C 46.324219 50.300781 45.488281 50.800781 43.636719 50.800781 C 42.242188 50.800781 40.945312 50.582031 39.445312 50.097656 C 39.445312 50.097656 38.832031 54.015625 38.804688 54.203125 C 39.867188 54.433594 40.8125 54.644531 43.671875 54.726562 C 48.605469 54.726562 50.886719 52.847656 50.886719 48.789062 C 50.886719 46.347656 49.929688 44.914062 47.585938 43.835938 C 45.628906 42.933594 45.402344 42.734375 45.402344 41.90625 C 45.402344 40.945312 46.179688 40.453125 47.691406 40.453125 C 48.609375 40.453125 49.863281 40.550781 51.050781 40.722656 L 51.714844 36.597656 C 50.507812 36.40625 48.671875 36.253906 47.601562 36.253906 C 42.367188 36.253906 40.558594 38.984375 40.574219 42.269531 "/>
<path style=" stroke:none;fill-rule:nonzero;fill:rgb(100%,100%,100%);fill-opacity:1;" d="M 129.304688 50.3125 C 131.480469 50.3125 133.011719 47.84375 133.011719 44.324219 C 133.011719 42.066406 132.140625 40.84375 130.53125 40.84375 C 128.414062 40.84375 126.90625 43.316406 126.90625 46.8125 C 126.90625 49.136719 127.710938 50.3125 129.304688 50.3125 M 136.203125 54.417969 L 131.777344 54.417969 L 131.996094 52.765625 C 130.714844 54.136719 129.398438 54.726562 127.683594 54.726562 C 124.285156 54.726562 122.039062 51.796875 122.039062 47.355469 C 122.039062 41.441406 125.523438 36.460938 129.648438 36.460938 C 131.460938 36.460938 132.835938 37.203125 134.113281 38.882812 L 135.152344 32.570312 L 139.765625 32.570312 Z M 136.203125 54.417969 "/>
<path style=" stroke:none;fill-rule:nonzero;fill:rgb(100%,100%,100%);fill-opacity:1;" d="M 115.660156 36.648438 C 115.074219 42.152344 114.035156 47.722656 113.222656 53.226562 L 113.007812 54.417969 L 117.6875 54.417969 C 119.359375 43.554688 119.765625 41.429688 122.386719 41.699219 C 122.804688 39.472656 123.582031 37.523438 124.164062 36.542969 C 122.203125 36.132812 121.109375 37.242188 119.679688 39.34375 C 119.792969 38.433594 120 37.550781 119.957031 36.648438 Z M 115.660156 36.648438 "/>
<path style=" stroke:none;fill-rule:nonzero;fill:rgb(100%,100%,100%);fill-opacity:1;" d="M 77.160156 36.648438 C 76.574219 42.152344 75.535156 47.722656 74.71875 53.226562 L 74.507812 54.417969 L 79.1875 54.417969 C 80.859375 43.554688 81.261719 41.429688 83.882812 41.699219 C 84.304688 39.472656 85.082031 37.523438 85.660156 36.542969 C 83.703125 36.132812 82.609375 37.242188 81.175781 39.34375 C 81.289062 38.433594 81.496094 37.550781 81.457031 36.648438 Z M 77.160156 36.648438 "/>
<path style=" stroke:none;fill-rule:nonzero;fill:rgb(100%,100%,100%);fill-opacity:1;" d="M 139.460938 52.945312 L 139.617188 52.945312 C 139.675781 52.945312 139.738281 52.949219 139.792969 52.921875 C 139.839844 52.890625 139.863281 52.835938 139.863281 52.78125 C 139.863281 52.734375 139.835938 52.679688 139.792969 52.65625 C 139.746094 52.625 139.664062 52.632812 139.609375 52.632812 L 139.460938 52.632812 Z M 139.460938 53.636719 L 139.175781 53.636719 L 139.175781 52.417969 L 139.691406 52.417969 C 139.796875 52.417969 139.910156 52.417969 140.003906 52.476562 C 140.101562 52.542969 140.160156 52.660156 140.160156 52.785156 C 140.160156 52.921875 140.078125 53.050781 139.945312 53.097656 L 140.171875 53.636719 L 139.855469 53.636719 L 139.667969 53.15625 L 139.460938 53.15625 Z M 139.648438 54.085938 C 140.230469 54.085938 140.703125 53.609375 140.703125 53.027344 C 140.703125 52.445312 140.230469 51.96875 139.648438 51.96875 C 139.0625 51.96875 138.589844 52.445312 138.589844 53.027344 C 138.589844 53.609375 139.0625 54.085938 139.648438 54.085938 M 138.257812 53.027344 C 138.257812 52.257812 138.878906 51.636719 139.648438 51.636719 C 140.417969 51.636719 141.039062 52.257812 141.039062 53.027344 C 141.039062 53.792969 140.417969 54.417969 139.648438 54.417969 C 138.878906 54.417969 138.257812 53.792969 138.257812 53.027344 "/>
</g>
</svg>
