<?xml version="1.0" encoding="UTF-8"?>
<svg xmlns="http://www.w3.org/2000/svg" xmlns:xlink="http://www.w3.org/1999/xlink" width="16pt" height="16pt" viewBox="0 0 16 16" version="1.1">
<defs>
<clipPath id="clip1">
  <path d="M 3 5 L 12 5 L 12 7 L 3 7 Z M 3 5 "/>
</clipPath>
<clipPath id="clip2">
  <path d="M 10.382812 7 L 3.382812 7 L 3.382812 5 L 10.382812 5 C 10.933594 5 11.382812 5.449219 11.382812 6 C 11.382812 6.550781 10.933594 7 10.382812 7 "/>
</clipPath>
</defs>
<g id="surface1">
<path style="fill:none;stroke-width:2;stroke-linecap:butt;stroke-linejoin:miter;stroke:rgb(0%,59.608459%,83.921814%);stroke-opacity:1;stroke-miterlimit:10;" d="M 5.765906 4 L 2.000281 4 C 1.621374 4 1.277624 3.785156 1.105749 3.445312 L 0.105749 1.445312 C -0.226282 0.78125 0.258093 0 1.000281 0 L 6.765906 0 C 7.511999 0 7.992468 0.78125 7.660437 1.445312 L 6.660437 3.445312 C 6.492468 3.785156 6.144812 4 5.765906 4 Z M 5.765906 4 " transform="matrix(1,0,0,1,6.616907,11)"/>
<path style="fill:none;stroke-width:2;stroke-linecap:round;stroke-linejoin:miter;stroke:rgb(0%,59.608459%,83.921814%);stroke-opacity:1;stroke-miterlimit:10;" d="M 6 12 L 0 0 " transform="matrix(1,0,0,1,1,1)"/>
<g clip-path="url(#clip1)" clip-rule="nonzero">
<g clip-path="url(#clip2)" clip-rule="evenodd">
<path style=" stroke:none;fill-rule:nonzero;fill:rgb(0%,59.608459%,83.921814%);fill-opacity:1;" d="M -1.617188 0 L 16.382812 0 L 16.382812 12 L -1.617188 12 Z M -1.617188 0 "/>
</g>
</g>
</g>
</svg>
