<?xml version="1.0" encoding="UTF-8"?>
<svg xmlns="http://www.w3.org/2000/svg" xmlns:xlink="http://www.w3.org/1999/xlink" width="30pt" height="28pt" viewBox="0 0 30 28" version="1.1">
<defs>
<clipPath id="clip2">
  <path d="M 14.261719 2 L 20.222656 13 L 26.410156 13 C 26.960938 13 27.410156 13.445312 27.410156 13.992188 C 27.414062 14.355469 27.230469 14.59375 27.121094 14.703125 C 27.011719 14.816406 26.773438 15 26.410156 15 L 20.222656 15 L 14.261719 26 L 13.027344 26 L 16.355469 15 L 6.59375 15 L 2.605469 18.925781 L 2.53125 19 L 2.003906 19 L 2.035156 18.945312 L 4.679688 14 L 2.035156 9.054688 L 2.003906 9 L 2.53125 9 L 2.566406 9.039062 L 6.59375 13 L 16.355469 13 L 13.027344 2 L 14.261719 2 M 14.261719 0 L 13.027344 0 C 11.707031 0 10.75 1.25 11.09375 2.523438 L 13.660156 11 L 7.410156 11 L 4.007812 7.648438 C 3.628906 7.234375 3.09375 7 2.53125 7 L 2.003906 7 C 0.4375 7 -0.523438 8.722656 0.304688 10.054688 L 2.410156 14 L 0.304688 17.945312 C -0.523438 19.277344 0.4375 21 2.003906 21 L 2.53125 21 C 3.09375 21 3.628906 20.765625 4.007812 20.351562 L 7.410156 17 L 13.660156 17 L 11.09375 25.476562 C 10.75 26.75 11.707031 28 13.027344 28 L 14.261719 28 C 14.976562 28 15.632812 27.621094 15.992188 27.007812 L 21.410156 17 L 26.410156 17 C 28.074219 17 29.421875 15.644531 29.410156 13.980469 C 29.402344 12.332031 28.0625 11 26.410156 11 L 21.410156 11 L 15.992188 0.992188 C 15.632812 0.378906 14.976562 0 14.261719 0 "/>
</clipPath>
<clipPath id="clip1">
  <rect width="30" height="28"/>
</clipPath>
<g id="surface4" clip-path="url(#clip1)">
<g clip-path="url(#clip2)" clip-rule="evenodd">
<rect x="0" y="0" width="30" height="28" style="fill:rgb(0%,59.608459%,83.921814%);fill-opacity:1;stroke:none;"/>
</g>
</g>
</defs>
<g id="surface1">
<use xlink:href="#surface4"/>
</g>
</svg>
