<?xml version="1.0" encoding="UTF-8"?>
<svg xmlns="http://www.w3.org/2000/svg" xmlns:xlink="http://www.w3.org/1999/xlink" width="365.986pt" height="59.7978pt" viewBox="0 0 365.986 59.7978" version="1.1">
<defs>
<clipPath id="clip1">
  <path d="M 36 20 L 78 20 L 78 59.796875 L 36 59.796875 Z M 36 20 "/>
</clipPath>
<clipPath id="clip2">
  <path d="M 165 20 L 211 20 L 211 59.796875 L 165 59.796875 Z M 165 20 "/>
</clipPath>
<clipPath id="clip3">
  <path d="M 80 0 L 123 0 L 123 59.796875 L 80 59.796875 Z M 80 0 "/>
</clipPath>
<clipPath id="clip4">
  <path d="M 0 20 L 34 20 L 34 59.796875 L 0 59.796875 Z M 0 20 "/>
</clipPath>
<clipPath id="clip5">
  <path d="M 126 19 L 166 19 L 166 59.796875 L 126 59.796875 Z M 126 19 "/>
</clipPath>
<clipPath id="clip6">
  <path d="M 214 20 L 249 20 L 249 59.796875 L 214 59.796875 Z M 214 20 "/>
</clipPath>
<clipPath id="clip7">
  <path d="M 257 27 L 290 27 L 290 59.796875 L 257 59.796875 Z M 257 27 "/>
</clipPath>
<clipPath id="clip8">
  <path d="M 295 27 L 328 27 L 328 59.796875 L 295 59.796875 Z M 295 27 "/>
</clipPath>
<clipPath id="clip9">
  <path d="M 334 27 L 365.984375 27 L 365.984375 59.796875 L 334 59.796875 Z M 334 27 "/>
</clipPath>
</defs>
<g id="surface1">
<g clip-path="url(#clip1)" clip-rule="nonzero">
<path style=" stroke:none;fill-rule:evenodd;fill:rgb(5.490112%,60.392761%,83.921814%);fill-opacity:1;" d="M 57.238281 20.691406 C 45.585938 20.691406 36.929688 29.386719 36.929688 40.097656 L 36.929688 40.238281 C 36.929688 50.949219 45.519531 59.515625 57.109375 59.515625 C 68.769531 59.515625 77.421875 50.816406 77.421875 40.097656 L 77.421875 39.960938 C 77.421875 29.25 68.832031 20.691406 57.238281 20.691406 M 66.953125 40.238281 C 66.953125 45.734375 63.316406 50.394531 57.238281 50.394531 C 51.382812 50.394531 47.40625 45.597656 47.40625 40.097656 L 47.40625 39.960938 C 47.40625 34.472656 51.039062 29.804688 57.109375 29.804688 C 62.972656 29.804688 66.953125 34.597656 66.953125 40.097656 Z M 66.953125 40.238281 "/>
</g>
<g clip-path="url(#clip2)" clip-rule="nonzero">
<path style=" stroke:none;fill-rule:evenodd;fill:rgb(5.490112%,60.392761%,83.921814%);fill-opacity:1;" d="M 200.070312 50.226562 L 183.433594 50.226562 C 183.433594 50.226562 188.390625 33.011719 188.5625 32.527344 C 188.730469 32.046875 189.355469 30.222656 190.878906 30.222656 L 197.761719 30.222656 C 198.957031 30.222656 200.066406 31.183594 200.066406 32.527344 Z M 204.882812 20.113281 L 185.339844 20.113281 C 181.378906 20.113281 180.253906 24.265625 179.789062 25.675781 C 179.324219 27.082031 172.382812 50.226562 172.382812 50.226562 L 170.605469 50.226562 C 168.046875 50.226562 165.964844 52.292969 165.964844 54.878906 C 165.964844 57.429688 168.046875 59.5 170.601562 59.5 L 204.882812 59.5 C 207.320312 59.5 210.4375 57.601562 210.4375 53.964844 L 210.4375 25.675781 C 210.4375 22.042969 207.320312 20.113281 204.882812 20.113281 "/>
</g>
<g clip-path="url(#clip3)" clip-rule="nonzero">
<path style=" stroke:none;fill-rule:evenodd;fill:rgb(5.490112%,60.392761%,83.921814%);fill-opacity:1;" d="M 104.933594 49.390625 C 99.5625 50.894531 93.933594 47.578125 92.367188 41.988281 C 90.800781 36.367188 93.871094 30.617188 99.242188 29.117188 C 104.613281 27.613281 110.226562 30.925781 111.792969 36.519531 C 113.378906 42.140625 110.292969 47.890625 104.933594 49.390625 M 122.15625 33.621094 C 119.136719 22.90625 107.722656 16.707031 96.644531 19.804688 C 94.867188 20.300781 93.234375 21.019531 91.726562 21.914062 C 91.699219 20.492188 91.589844 18.199219 93.285156 16.492188 C 95.671875 14.105469 100.421875 12.644531 101 12.484375 C 102.710938 12.027344 108.113281 10.460938 112.128906 9.378906 C 116.128906 8.300781 116.699219 5.300781 116.09375 3.0625 C 115.484375 0.816406 112.511719 -0.550781 109.644531 0.214844 C 106.796875 0.984375 102.257812 2.1875 97.777344 3.421875 C 93.285156 4.652344 89.4375 7.003906 86.753906 9.457031 C 84.085938 11.90625 82.28125 14.792969 81.582031 19.09375 C 80.382812 26.433594 80.917969 35.777344 81.324219 40.433594 C 81.390625 41.910156 81.605469 43.40625 82.019531 44.886719 C 85.023438 55.628906 96.445312 61.796875 107.535156 58.699219 C 118.617188 55.59375 125.160156 44.367188 122.15625 33.621094 "/>
</g>
<g clip-path="url(#clip4)" clip-rule="nonzero">
<path style=" stroke:none;fill-rule:evenodd;fill:rgb(5.490112%,60.392761%,83.921814%);fill-opacity:1;" d="M 28.011719 20.40625 C 27.992188 20.40625 27.976562 20.414062 27.949219 20.414062 L 27.953125 20.40625 L 5.546875 20.40625 L 5.550781 20.410156 C 5.527344 20.410156 5.511719 20.40625 5.492188 20.40625 C 2.457031 20.40625 0 22.890625 0 25.914062 L 0 54.320312 C 0 57.34375 2.457031 59.796875 5.492188 59.796875 C 8.511719 59.796875 10.980469 57.34375 10.980469 54.320312 L 10.980469 32.824219 C 10.980469 31.480469 12.09375 30.519531 13.269531 30.519531 L 20.230469 30.519531 C 21.410156 30.519531 22.523438 31.480469 22.523438 32.824219 L 22.523438 54.320312 C 22.523438 57.34375 24.988281 59.796875 28.011719 59.796875 C 31.039062 59.796875 33.503906 57.34375 33.503906 54.320312 L 33.503906 25.914062 C 33.503906 22.890625 31.039062 20.40625 28.011719 20.40625 "/>
</g>
<g clip-path="url(#clip5)" clip-rule="nonzero">
<path style=" stroke:none;fill-rule:evenodd;fill:rgb(5.490112%,60.392761%,83.921814%);fill-opacity:1;" d="M 165.515625 36.390625 C 165.515625 32.59375 164.382812 28.03125 160.59375 24.234375 C 157.476562 21.160156 152.90625 19.128906 146.519531 19.128906 C 140.300781 19.128906 135.386719 21.160156 131.925781 24.570312 C 128.484375 28.03125 126.3125 33.015625 126.3125 38.878906 C 126.3125 44.960938 128.394531 50.109375 132.097656 53.855469 C 135.730469 57.488281 141.078125 59.519531 147.722656 59.519531 C 151.527344 59.519531 155.40625 59.09375 158.957031 57.660156 C 162.230469 56.390625 163.867188 54.785156 163.867188 52.472656 C 163.867188 50.027344 162.058594 47.996094 159.644531 47.996094 C 156.785156 47.996094 154.542969 50.613281 148.496094 50.613281 C 142.902344 50.613281 139.351562 47.832031 138.316406 42.679688 L 159.902344 42.679688 C 163.433594 42.679688 165.515625 40.394531 165.515625 36.390625 M 138.230469 35.292969 C 139.007812 30.820312 141.847656 27.949219 146.605469 27.949219 C 151.273438 27.949219 154.113281 31.242188 154.460938 35.292969 Z M 138.230469 35.292969 "/>
</g>
<g clip-path="url(#clip6)" clip-rule="nonzero">
<path style=" stroke:none;fill-rule:evenodd;fill:rgb(5.490112%,60.392761%,83.921814%);fill-opacity:1;" d="M 248.535156 36.171875 C 248.414062 34.574219 247.1875 29.433594 243.519531 25.753906 C 240.210938 22.308594 235.847656 20.203125 229.792969 20.203125 C 226.335938 20.203125 224.417969 20.214844 221.191406 21.578125 C 218.214844 22.777344 216.726562 24.300781 216.726562 26.492188 C 216.726562 28.816406 218.375 30.738281 220.566406 30.738281 C 223.164062 30.738281 223.109375 28.824219 228.605469 28.824219 C 233.082031 28.824219 236.109375 30.875 237.421875 34.683594 C 234.042969 33.097656 230.3125 33.023438 230.3125 33.023438 C 230.3125 33.023438 217.277344 31.851562 214.460938 43.316406 C 213.019531 51.160156 217.5625 58.046875 227.089844 59.242188 C 235.425781 59.789062 239.515625 56.355469 239.515625 56.355469 C 240.378906 57.820312 241.960938 58.808594 243.796875 58.808594 C 246.53125 58.808594 248.769531 56.589844 248.769531 53.839844 C 248.769531 53.796875 248.847656 40.070312 248.535156 36.171875 M 231.03125 52.253906 C 226.855469 52.253906 223.457031 49.585938 223.457031 46.304688 C 223.457031 43.019531 226.855469 40.359375 231.03125 40.359375 C 235.21875 40.359375 238.613281 43.019531 238.613281 46.304688 C 238.613281 49.585938 235.21875 52.253906 231.03125 52.253906 "/>
</g>
<g clip-path="url(#clip7)" clip-rule="nonzero">
<path style=" stroke:none;fill-rule:evenodd;fill:rgb(5.490112%,60.392761%,83.921814%);fill-opacity:1;" d="M 289.449219 43.4375 C 289.449219 52.257812 282.304688 59.382812 273.496094 59.382812 C 264.695312 59.382812 257.554688 52.257812 257.554688 43.4375 C 257.554688 34.617188 264.695312 27.488281 273.496094 27.488281 C 282.304688 27.488281 289.449219 34.617188 289.449219 43.4375 "/>
</g>
<g clip-path="url(#clip8)" clip-rule="nonzero">
<path style=" stroke:none;fill-rule:evenodd;fill:rgb(42.352295%,69.020081%,87.843323%);fill-opacity:1;" d="M 327.722656 43.4375 C 327.722656 52.257812 320.574219 59.382812 311.777344 59.382812 C 302.972656 59.382812 295.832031 52.257812 295.832031 43.4375 C 295.832031 34.617188 302.972656 27.488281 311.777344 27.488281 C 320.574219 27.488281 327.722656 34.617188 327.722656 43.4375 "/>
</g>
<g clip-path="url(#clip9)" clip-rule="nonzero">
<path style=" stroke:none;fill-rule:evenodd;fill:rgb(58.824158%,76.078796%,90.98053%);fill-opacity:1;" d="M 365.984375 43.4375 C 365.984375 52.257812 358.839844 59.382812 350.039062 59.382812 C 341.234375 59.382812 334.089844 52.257812 334.089844 43.4375 C 334.089844 34.617188 341.234375 27.488281 350.039062 27.488281 C 358.839844 27.488281 365.984375 34.617188 365.984375 43.4375 "/>
</g>
</g>
</svg>
