<?xml version="1.0" encoding="UTF-8" standalone="no"?>
<svg width="16px" height="16px" viewBox="0 0 16 16" version="1.1" xmlns="http://www.w3.org/2000/svg" xmlns:xlink="http://www.w3.org/1999/xlink" xmlns:sketch="http://www.bohemiancoding.com/sketch/ns">
    <!-- Generator: Sketch 3.4 (15575) - http://www.bohemiancoding.com/sketch -->
    <title>ico-print</title>
    <desc>Created with Sketch.</desc>
    <defs></defs>
    <g id="Page-1" stroke="none" stroke-width="1" fill="none" fill-rule="evenodd" sketch:type="MSPage">
        <g id="7.Payment-Final" sketch:type="MSArtboardGroup" transform="translate(-232.000000, -436.000000)" fill="#0098D6">
            <g id="Header" sketch:type="MSLayerGroup" transform="translate(22.000000, 0.000000)">
                <g id="Head" transform="translate(43.000000, 184.000000)" sketch:type="MSShapeGroup">
                    <g id="Imported-Layers-+-Распечатать" transform="translate(167.000000, 252.000000)">
                        <g id="ico-print">
                            <path d="M11,14 L5,14 C4.448,14 4,13.553 4,13 C4,12.447 4.448,12 5,12 L11,12 C11.552,12 12,12.447 12,13 C12,13.553 11.552,14 11,14" id="Fill-1"></path>
                            <path d="M15,16 C14.448,16 14,15.553 14,15 L14,10 L2,10 L2,15 C2,15.553 1.552,16 1,16 C0.448,16 0,15.553 0,15 L0,9 C0,8.447 0.448,8 1,8 L15,8 C15.552,8 16,8.447 16,9 L16,15 C16,15.553 15.552,16 15,16" id="Fill-2"></path>
                            <path d="M13,9 C12.448,9 12,8.553 12,8 L12,4.414 L9.585,2 L4,2 L4,8 C4,8.553 3.552,9 3,9 C2.448,9 2,8.553 2,8 L2,1 C2,0.447 2.448,0 3,0 L10,0 C10.265,0 10.519,0.106 10.706,0.293 L13.707,3.293 C13.895,3.481 14,3.734 14,4 L14,8 C14,8.553 13.552,9 13,9" id="Fill-3"></path>
                        </g>
                    </g>
                </g>
            </g>
        </g>
    </g>
</svg>