<?xml version="1.0" encoding="UTF-8"?>
<svg xmlns="http://www.w3.org/2000/svg" xmlns:xlink="http://www.w3.org/1999/xlink" width="281.223pt" height="391.063pt" viewBox="0 0 281.223 391.063" version="1.1">
<defs>
<clipPath id="clip1">
  <path d="M 0 0 L 281.222656 0 L 281.222656 297 L 0 297 Z M 0 0 "/>
</clipPath>
<clipPath id="clip2">
  <path d="M 26 304 L 94 304 L 94 391.0625 L 26 391.0625 Z M 26 304 "/>
</clipPath>
</defs>
<g id="surface1">
<g clip-path="url(#clip1)" clip-rule="nonzero">
<path style=" stroke:none;fill-rule:nonzero;fill:rgb(96.078491%,62.353516%,0%);fill-opacity:1;" d="M 222.691406 198.398438 C 225.5 199.507812 227.171875 204.0625 227.640625 206.261719 C 228.726562 211.253906 227.015625 213.34375 225.542969 212.421875 C 224.015625 211.664062 221.9375 207.800781 220.378906 202.804688 C 219.695312 200.644531 219.933594 197.386719 222.691406 198.398438 M 278.617188 287.152344 C 270.609375 270.816406 256.421875 258.773438 241.011719 249.601562 C 235.703125 246.367188 229.707031 244.105469 224.40625 242.402344 C 212.355469 238.503906 200.664062 237.542969 187.046875 235.230469 C 175.980469 233.308594 167.246094 228.757812 157.859375 222.332031 C 152.953125 219.003906 148.964844 214.394531 145.632812 209.503906 C 145.011719 208.523438 141.902344 204.714844 142.183594 203.386719 C 142.183594 203.386719 140.046875 212.140625 144.347656 224.445312 C 104.703125 222.648438 69.984375 200.597656 54.085938 173.8125 C 24.785156 124.617188 35.085938 64.941406 74.152344 38.578125 C 113.1875 12.21875 172.707031 30.808594 204.585938 78.398438 C 224.5625 108.25 229.707031 143.011719 221.09375 171.257812 C 221.054688 171.4375 220.972656 171.65625 220.898438 171.878906 C 203.96875 159.523438 188.507812 165.847656 188.507812 165.847656 C 205.484375 164.097656 218.882812 177.660156 218.882812 177.660156 C 220.859375 179.382812 222.753906 181.347656 224.492188 183.484375 C 224.871094 184.054688 225.257812 184.570312 225.632812 185.136719 C 230.097656 191.199219 232.851562 197.953125 234.03125 204.746094 C 267.75 161.816406 273.273438 102.359375 243.5 56.175781 C 205.484375 -2.664062 124.566406 -17.6875 62.695312 22.589844 C 0.824219 62.898438 -18.535156 143.214844 19.441406 202.074219 C 50.664062 250.503906 123.835938 265.230469 165.835938 251.914062 C 181.683594 246.910156 236.015625 242.117188 273.800781 287.011719 C 273.800781 287.011719 277.09375 290.765625 278.863281 295.035156 C 278.863281 295.035156 279.378906 296.539062 280.777344 295.820312 C 281.164062 295.617188 282.214844 294.382812 278.617188 287.152344 M 200.742188 207.699219 C 200.691406 207.660156 200.664062 207.660156 200.625 207.632812 C 200.550781 207.632812 200.476562 207.582031 200.449219 207.582031 C 200.324219 207.535156 200.246094 207.503906 200.167969 207.503906 C 200.097656 207.503906 200.042969 207.503906 200.023438 207.46875 C 199.875 207.410156 199.757812 207.398438 199.59375 207.332031 C 197.84375 207.027344 196.125 207.273438 194.628906 208.214844 C 191.375 210.507812 190.878906 215.53125 193.53125 219.578125 C 194.8125 221.410156 196.484375 222.691406 198.332031 223.324219 C 198.332031 223.324219 198.359375 223.324219 198.457031 223.414062 C 198.457031 223.414062 198.582031 223.472656 198.625 223.472656 C 198.71875 223.492188 198.789062 223.492188 198.875 223.527344 C 198.9375 223.527344 198.964844 223.550781 199.003906 223.605469 C 199.164062 223.605469 199.277344 223.683594 199.449219 223.683594 C 201.179688 223.980469 202.9375 223.75 204.398438 222.820312 C 207.679688 220.558594 208.195312 215.53125 205.484375 211.480469 C 204.261719 209.664062 202.550781 208.347656 200.742188 207.699219 "/>
</g>
<g clip-path="url(#clip2)" clip-rule="nonzero">
<path style=" stroke:none;fill-rule:nonzero;fill:rgb(16.862488%,18.03894%,51.765442%);fill-opacity:1;" d="M 93.058594 340.703125 C 93.058594 319.082031 80.105469 304.808594 60.117188 304.808594 C 40.03125 304.808594 26.980469 319.570312 26.980469 341.40625 C 26.980469 359.664062 35.136719 371.1875 50.9375 376.902344 L 89.6875 391.0625 L 92.234375 379.4375 L 73.984375 373.222656 C 85.5 368.332031 93.058594 357.007812 93.058594 340.703125 M 60.011719 367.109375 C 47.984375 367.109375 40.742188 356.609375 40.742188 341.40625 C 40.742188 326.109375 47.882812 316.019531 60.011719 316.019531 C 72.035156 316.019531 79.386719 326.109375 79.386719 341.40625 C 79.386719 356.609375 72.148438 367.109375 60.011719 367.109375 "/>
</g>
<path style=" stroke:none;fill-rule:nonzero;fill:rgb(16.862488%,18.03894%,51.765442%);fill-opacity:1;" d="M 110.792969 376.492188 L 110.792969 306.128906 L 124.351562 306.128906 L 124.351562 376.492188 Z M 110.792969 376.492188 "/>
<path style=" stroke:none;fill-rule:nonzero;fill:rgb(16.862488%,18.03894%,51.765442%);fill-opacity:1;" d="M 216.738281 376.492188 L 203.882812 376.492188 L 188.277344 325.304688 L 172.695312 376.492188 L 159.945312 376.492188 L 140.257812 307.972656 L 154.339844 305.410156 L 167.578125 355.777344 L 182.269531 306.128906 L 195.835938 306.128906 L 210.515625 355.777344 L 223.363281 306.128906 L 236.917969 306.128906 Z M 216.738281 376.492188 "/>
<path style=" stroke:none;fill-rule:nonzero;fill:rgb(16.862488%,18.03894%,51.765442%);fill-opacity:1;" d="M 252.632812 376.492188 L 252.632812 306.128906 L 266.1875 306.128906 L 266.1875 376.492188 Z M 252.632812 376.492188 "/>
</g>
</svg>
