<?xml version="1.0" encoding="UTF-8"?>
<svg xmlns="http://www.w3.org/2000/svg" xmlns:xlink="http://www.w3.org/1999/xlink" width="16pt" height="16pt" viewBox="0 0 16 16" version="1.1">
<defs>
<clipPath id="clip1">
  <path d="M 4 1 L 16 1 L 16 10 L 4 10 Z M 4 1 "/>
</clipPath>
<clipPath id="clip2">
  <path d="M 8 10 C 7.742188 10 7.488281 9.902344 7.292969 9.707031 L 4.292969 6.707031 C 3.902344 6.316406 3.902344 5.683594 4.292969 5.292969 C 4.683594 4.902344 5.316406 4.902344 5.707031 5.292969 L 8 7.585938 L 14.292969 1.292969 C 14.683594 0.902344 15.316406 0.902344 15.707031 1.292969 C 16.097656 1.683594 16.097656 2.316406 15.707031 2.707031 L 8.707031 9.707031 C 8.511719 9.902344 8.257812 10 8 10 "/>
</clipPath>
</defs>
<g id="surface1">
<g clip-path="url(#clip1)" clip-rule="nonzero">
<g clip-path="url(#clip2)" clip-rule="evenodd">
<path style=" stroke:none;fill-rule:nonzero;fill:rgb(0%,59.608459%,83.921814%);fill-opacity:1;" d="M -1 -4 L 21 -4 L 21 15 L -1 15 Z M -1 -4 "/>
</g>
</g>
<path style="fill:none;stroke-width:2;stroke-linecap:round;stroke-linejoin:miter;stroke:rgb(0%,59.608459%,83.921814%);stroke-opacity:1;stroke-miterlimit:10;" d="M 14 7 C 14 7.964844 13.804688 8.886719 13.449219 9.726562 C 13.097656 10.5625 12.582031 11.316406 11.949219 11.949219 C 11.316406 12.582031 10.5625 13.097656 9.726562 13.449219 C 8.886719 13.804688 7.964844 14 7 14 C 6.035156 14 5.113281 13.804688 4.273438 13.449219 C 3.4375 13.097656 2.683594 12.582031 2.050781 11.949219 C 1.417969 11.316406 0.902344 10.5625 0.550781 9.726562 C 0.195312 8.886719 0 7.964844 0 7 C 0 6.035156 0.195312 5.113281 0.550781 4.273438 C 0.902344 3.4375 1.417969 2.683594 2.050781 2.050781 C 2.683594 1.417969 3.4375 0.902344 4.273438 0.550781 C 5.113281 0.195312 6.035156 0 7 0 C 7.964844 0 8.886719 0.195312 9.726562 0.550781 " transform="matrix(1,0,0,1,1,1)"/>
</g>
</svg>
