<?xml version="1.0" encoding="UTF-8" standalone="no"?>
<svg width="16px" height="16px" viewBox="0 0 16 16" version="1.1" xmlns="http://www.w3.org/2000/svg" xmlns:xlink="http://www.w3.org/1999/xlink" xmlns:sketch="http://www.bohemiancoding.com/sketch/ns">
    <!-- Generator: Sketch 3.4 (15575) - http://www.bohemiancoding.com/sketch -->
    <title>ico-save</title>
    <desc>Created with Sketch.</desc>
    <defs></defs>
    <g id="Page-1" stroke="none" stroke-width="1" fill="none" fill-rule="evenodd" sketch:type="MSPage">
        <g id="7.Payment-Final" sketch:type="MSArtboardGroup" transform="translate(-357.000000, -436.000000)" fill="#0098D6">
            <g id="Header" sketch:type="MSLayerGroup" transform="translate(22.000000, 0.000000)">
                <g id="Head" transform="translate(43.000000, 184.000000)" sketch:type="MSShapeGroup">
                    <g id="Imported-Layers-+-Сохранить" transform="translate(292.000000, 252.000000)">
                        <g id="ico-save">
                            <path d="M12,16 L1,16 C0.448,16 0,15.553 0,15 L0,1 C0,0.447 0.448,0 1,0 L9,0 C9.265,0 9.52,0.106 9.707,0.293 L12.708,3.293 C12.895,3.481 13,3.734 13,4 L13,8 C13,8.553 12.553,9 12,9 C11.448,9 11,8.553 11,8 L11,4.414 L8.586,2 L2,2 L2,14 L11,14 L11,13 C11,12.447 11.448,12 12,12 C12.553,12 13,12.447 13,13 L13,15 C13,15.553 12.553,16 12,16" id="Fill-1"></path>
                            <path d="M12,10 C11.744,10 11.488,9.902 11.293,9.707 L8.293,6.707 C7.902,6.316 7.902,5.684 8.293,5.293 C8.684,4.902 9.316,4.902 9.707,5.293 L12.707,8.293 C13.098,8.684 13.098,9.316 12.707,9.707 C12.512,9.902 12.256,10 12,10" id="Fill-2"></path>
                            <path d="M12,10 C11.744,10 11.488,9.902 11.293,9.707 C10.902,9.316 10.902,8.684 11.293,8.293 L14.293,5.293 C14.684,4.902 15.316,4.902 15.707,5.293 C16.098,5.684 16.098,6.316 15.707,6.707 L12.707,9.707 C12.512,9.902 12.256,10 12,10" id="Fill-3"></path>
                            <path d="M9,13 L4,13 C3.448,13 3,12.553 3,12 C3,11.447 3.448,11 4,11 L9,11 C9.552,11 10,11.447 10,12 C10,12.553 9.552,13 9,13" id="Fill-4"></path>
                        </g>
                    </g>
                </g>
            </g>
        </g>
    </g>
</svg>