<?xml version="1.0" encoding="UTF-8"?>
<svg xmlns="http://www.w3.org/2000/svg" xmlns:xlink="http://www.w3.org/1999/xlink" width="16pt" height="16pt" viewBox="0 0 16 16" version="1.1">
<defs>
<clipPath id="clip2">
  <path d="M 4 0 L 12 0 L 12 9 L 4 9 Z M 4 0 "/>
</clipPath>
<clipPath id="clip3">
  <path d="M 8 2 C 9.101562 2 10 2.898438 10 4 C 10 5.421875 8.808594 7 8 7 C 7.191406 7 6 5.421875 6 4 C 6 2.898438 6.898438 2 8 2 M 8 0 C 5.789062 0 4 1.789062 4 4 C 4 6.210938 5.789062 9 8 9 C 10.210938 9 12 6.210938 12 4 C 12 1.789062 10.210938 0 8 0 "/>
</clipPath>
<clipPath id="clip1">
  <rect width="16" height="16"/>
</clipPath>
<g id="surface4" clip-path="url(#clip1)">
<g clip-path="url(#clip2)" clip-rule="nonzero">
<g clip-path="url(#clip3)" clip-rule="evenodd">
<path style=" stroke:none;fill-rule:nonzero;fill:rgb(0%,59.608459%,83.921814%);fill-opacity:1;" d="M -1 -5 L 17 -5 L 17 14 L -1 14 Z M -1 -5 "/>
</g>
</g>
<path style="fill:none;stroke-width:2;stroke-linecap:round;stroke-linejoin:round;stroke:rgb(0%,59.608459%,83.921814%);stroke-opacity:1;stroke-miterlimit:10;" d="M 11 0 L 13 1 L 14 6 M 3 0 L 1 1 L 0 6 " transform="matrix(1,0,0,1,1,9)"/>
<path style="fill:none;stroke-width:2;stroke-linecap:round;stroke-linejoin:miter;stroke:rgb(0%,59.608459%,83.921814%);stroke-opacity:1;stroke-miterlimit:10;" d="M 14 0 L 0 0 " transform="matrix(1,0,0,1,1,15)"/>
</g>
</defs>
<g id="surface1">
<use xlink:href="#surface4"/>
</g>
</svg>
