<?xml version="1.0" encoding="UTF-8"?>
<svg xmlns="http://www.w3.org/2000/svg" xmlns:xlink="http://www.w3.org/1999/xlink" width="216pt" height="44pt" viewBox="0 0 216 44" version="1.1">
<defs>
<clipPath id="clip2">
  <path d="M 1 1 L 215 1 L 215 43 L 1 43 Z M 1 1 "/>
</clipPath>
<clipPath id="clip3">
  <path d="M 1 7.003906 L 1 36.996094 C 1 40.316406 3.6875 43 7.003906 43 L 208.996094 43 C 212.3125 43 215 40.3125 215 36.996094 L 215 7.003906 C 215 3.683594 212.3125 1 208.996094 1 L 7.003906 1 C 3.6875 1 1 3.6875 1 7.003906 Z M 1 7.003906 "/>
</clipPath>
<clipPath id="clip4">
  <path d="M -10 -10 L 226 -10 L 226 54 L -10 54 Z M 2 7.003906 C 2 4.242188 4.238281 2 7.003906 2 L 208.996094 2 C 211.757812 2 214 4.234375 214 7.003906 L 214 36.996094 C 214 39.757812 211.761719 42 208.996094 42 L 7.003906 42 C 4.242188 42 2 39.765625 2 36.996094 Z M 2 7.003906 "/>
</clipPath>
<clipPath id="clip1">
  <rect width="216" height="44"/>
</clipPath>
<g id="surface4" clip-path="url(#clip1)">
<g clip-path="url(#clip2)" clip-rule="nonzero">
<g clip-path="url(#clip3)" clip-rule="evenodd">
<rect x="0" y="0" width="216" height="44" style="fill:rgb(89.019775%,93.333435%,97.647095%);fill-opacity:1;stroke:none;"/>
</g>
</g>
<g clip-path="url(#clip4)" clip-rule="evenodd">
<path style="fill:none;stroke-width:4;stroke-linecap:butt;stroke-linejoin:miter;stroke:rgb(100%,100%,100%);stroke-opacity:1;stroke-miterlimit:10;" d="M 0 5.003906 C 0 2.242188 2.238281 0 5.003906 0 L 206.996094 0 C 209.757812 0 212 2.234375 212 5.003906 L 212 34.996094 C 212 37.757812 209.761719 40 206.996094 40 L 5.003906 40 C 2.242188 40 0 37.765625 0 34.996094 Z M 0 5.003906 " transform="matrix(1,0,0,1,2,2)"/>
</g>
</g>
</defs>
<g id="surface1">
<use xlink:href="#surface4"/>
</g>
</svg>
