<?xml version="1.0" encoding="UTF-8"?>
<svg xmlns="http://www.w3.org/2000/svg" xmlns:xlink="http://www.w3.org/1999/xlink" width="16pt" height="16pt" viewBox="0 0 16 16" version="1.1">
<defs>
<clipPath id="clip1">
  <path d="M 4 10 L 9 10 L 9 12 L 4 12 Z M 4 10 "/>
</clipPath>
<clipPath id="clip2">
  <path d="M 8 12 L 5 12 C 4.449219 12 4 11.550781 4 11 C 4 10.449219 4.449219 10 5 10 L 8 10 C 8.550781 10 9 10.449219 9 11 C 9 11.550781 8.550781 12 8 12 "/>
</clipPath>
<clipPath id="clip3">
  <path d="M 4 7 L 7 7 L 7 9 L 4 9 Z M 4 7 "/>
</clipPath>
<clipPath id="clip4">
  <path d="M 6 9 L 5 9 C 4.449219 9 4 8.550781 4 8 C 4 7.449219 4.449219 7 5 7 L 6 7 C 6.550781 7 7 7.449219 7 8 C 7 8.550781 6.550781 9 6 9 "/>
</clipPath>
</defs>
<g id="surface1">
<path style="fill:none;stroke-width:2;stroke-linecap:round;stroke-linejoin:round;stroke:rgb(0%,59.608459%,83.921814%);stroke-opacity:1;stroke-miterlimit:10;" d="M 14 7 C 14 10.867188 10.867188 14 7 14 C 3.132812 14 0 10.867188 0 7 C 0 3.132812 3.132812 0 7 0 C 10.867188 0 14 3.132812 14 7 Z M 5 4 L 5 13 Z M 8.5 7 L 5 7 L 5 4 L 8.5 4 C 9.328125 4 10 4.671875 10 5.5 C 10 6.328125 9.328125 7 8.5 7 Z M 8.5 7 " transform="matrix(1,0,0,1,1,1)"/>
<g clip-path="url(#clip1)" clip-rule="nonzero">
<g clip-path="url(#clip2)" clip-rule="evenodd">
<path style=" stroke:none;fill-rule:nonzero;fill:rgb(0%,59.608459%,83.921814%);fill-opacity:1;" d="M -1 5 L 14 5 L 14 17 L -1 17 Z M -1 5 "/>
</g>
</g>
<g clip-path="url(#clip3)" clip-rule="nonzero">
<g clip-path="url(#clip4)" clip-rule="evenodd">
<path style=" stroke:none;fill-rule:nonzero;fill:rgb(0%,59.608459%,83.921814%);fill-opacity:1;" d="M -1 2 L 12 2 L 12 14 L -1 14 Z M -1 2 "/>
</g>
</g>
</g>
</svg>
