<?xml version="1.0" encoding="UTF-8"?>
<svg xmlns="http://www.w3.org/2000/svg" xmlns:xlink="http://www.w3.org/1999/xlink" width="212pt" height="40pt" viewBox="0 0 212 40" version="1.1">
<defs>
<clipPath id="clip2">
  <path d="M -20.5 -20.5 L 232.5 -20.5 L 232.5 60.5 L -20.5 60.5 Z M 0.5 5.003906 C 0.5 2.515625 2.515625 0.5 5.003906 0.5 L 206.996094 0.5 C 209.484375 0.5 211.5 2.515625 211.5 5.003906 L 211.5 34.996094 C 211.5 37.484375 209.484375 39.5 206.996094 39.5 L 5.003906 39.5 C 2.515625 39.5 0.5 37.484375 0.5 34.996094 Z M -0.5 5.003906 L -0.5 34.996094 C -0.5 38.039062 1.964844 40.5 5.003906 40.5 L 206.996094 40.5 C 210.039062 40.5 212.5 38.035156 212.5 34.996094 L 212.5 5.003906 C 212.5 1.960938 210.035156 -0.5 206.996094 -0.5 L 5.003906 -0.5 C 1.960938 -0.5 -0.5 1.964844 -0.5 5.003906 Z M -0.5 5.003906 "/>
</clipPath>
<clipPath id="clip3">
  <path d="M 0 5.003906 C 0 2.242188 2.238281 0 5.003906 0 L 206.996094 0 C 209.757812 0 212 2.234375 212 5.003906 L 212 34.996094 C 212 37.757812 209.761719 40 206.996094 40 L 5.003906 40 C 2.242188 40 0 37.765625 0 34.996094 Z M 0 5.003906 "/>
</clipPath>
<clipPath id="clip4">
  <path d="M 0 5.003906 C 0 2.242188 2.238281 0 5.003906 0 L 206.996094 0 C 209.757812 0 212 2.234375 212 5.003906 L 212 34.996094 C 212 37.757812 209.761719 40 206.996094 40 L 5.003906 40 C 2.242188 40 0 37.765625 0 34.996094 Z M 0 5.003906 "/>
</clipPath>
<clipPath id="clip1">
  <rect width="212" height="40"/>
</clipPath>
<g id="surface4" clip-path="url(#clip1)">
<g clip-path="url(#clip2)" clip-rule="evenodd">
<g clip-path="url(#clip3)" clip-rule="evenodd">
<path style=" stroke:none;fill-rule:evenodd;fill:rgb(100%,100%,100%);fill-opacity:1;" d="M 0 5.003906 C 0 2.242188 2.238281 0 5.003906 0 L 206.996094 0 C 209.757812 0 212 2.234375 212 5.003906 L 212 34.996094 C 212 37.757812 209.761719 40 206.996094 40 L 5.003906 40 C 2.242188 40 0 37.765625 0 34.996094 Z M 0 5.003906 "/>
</g>
</g>
<g clip-path="url(#clip4)" clip-rule="evenodd">
<path style="fill:none;stroke-width:2;stroke-linecap:butt;stroke-linejoin:miter;stroke:rgb(60.00061%,83.921814%,93.725586%);stroke-opacity:1;stroke-miterlimit:10;" d="M 0 5.003906 C 0 2.242188 2.238281 0 5.003906 0 L 206.996094 0 C 209.757812 0 212 2.234375 212 5.003906 L 212 34.996094 C 212 37.757812 209.761719 40 206.996094 40 L 5.003906 40 C 2.242188 40 0 37.765625 0 34.996094 Z M 0 5.003906 "/>
</g>
</g>
</defs>
<g id="surface1">
<use xlink:href="#surface4"/>
</g>
</svg>
