<?xml version="1.0" encoding="UTF-8"?>
<svg xmlns="http://www.w3.org/2000/svg" xmlns:xlink="http://www.w3.org/1999/xlink" width="225.532pt" height="69.8965pt" viewBox="0 0 225.532 69.8965" version="1.1">
<defs>
<clipPath id="clip1">
  <path d="M 104 0 L 157 0 L 157 69.898438 L 104 69.898438 Z M 104 0 "/>
</clipPath>
<clipPath id="clip2">
  <path d="M 217 60 L 225.53125 60 L 225.53125 69 L 217 69 Z M 217 60 "/>
</clipPath>
</defs>
<g id="surface1">
<path style=" stroke:none;fill-rule:nonzero;fill:rgb(2.745056%,37.646484%,63.922119%);fill-opacity:1;" d="M 76.09375 68.894531 L 87.03125 1.179688 L 104.515625 1.179688 L 93.578125 68.894531 Z M 76.09375 68.894531 "/>
<g clip-path="url(#clip1)" clip-rule="nonzero">
<path style=" stroke:none;fill-rule:nonzero;fill:rgb(2.745056%,37.646484%,63.922119%);fill-opacity:1;" d="M 157 2.84375 C 153.542969 1.484375 148.105469 0 141.332031 0 C 124.046875 0 111.878906 9.191406 111.777344 22.347656 C 111.667969 32.078125 120.460938 37.507812 127.089844 40.742188 C 133.902344 44.058594 136.191406 46.183594 136.164062 49.148438 C 136.117188 53.683594 130.726562 55.761719 125.699219 55.761719 C 118.699219 55.761719 114.980469 54.738281 109.230469 52.207031 L 106.980469 51.128906 L 104.535156 66.285156 C 108.613281 68.171875 116.171875 69.8125 124.015625 69.898438 C 142.386719 69.898438 154.324219 60.820312 154.464844 46.769531 C 154.527344 39.050781 149.867188 33.199219 139.777344 28.367188 C 133.667969 25.230469 129.917969 23.148438 129.960938 19.972656 C 129.964844 17.15625 133.128906 14.144531 139.976562 14.144531 C 145.695312 14.054688 149.835938 15.371094 153.0625 16.746094 L 154.632812 17.519531 L 157 2.84375 "/>
</g>
<path style=" stroke:none;fill-rule:nonzero;fill:rgb(2.745056%,37.646484%,63.922119%);fill-opacity:1;" d="M 180.28125 44.886719 C 181.730469 40.992188 187.246094 25.957031 187.246094 25.957031 C 187.144531 26.136719 188.6875 22.035156 189.570312 19.496094 L 190.75 25.339844 C 190.75 25.339844 194.105469 41.5 194.796875 44.886719 Z M 201.851562 1.246094 L 188.339844 1.246094 C 184.148438 1.246094 181.011719 2.445312 179.175781 6.859375 L 153.210938 68.914062 L 171.574219 68.914062 C 171.574219 68.914062 174.570312 60.570312 175.25 58.734375 C 177.253906 58.734375 195.097656 58.773438 197.644531 58.773438 C 198.167969 61.136719 199.773438 68.914062 199.773438 68.914062 L 216 68.914062 L 201.851562 1.246094 "/>
<path style=" stroke:none;fill-rule:nonzero;fill:rgb(2.745056%,37.646484%,63.922119%);fill-opacity:1;" d="M 61.425781 1.234375 L 44.3125 47.398438 L 42.480469 38.015625 C 39.289062 27.203125 29.363281 15.484375 18.261719 9.613281 L 33.914062 68.835938 L 52.421875 68.824219 L 79.953125 1.234375 L 61.425781 1.234375 "/>
<path style=" stroke:none;fill-rule:nonzero;fill:rgb(98.039246%,66.275024%,19.607544%);fill-opacity:1;" d="M 28.429688 1.191406 L 0.234375 1.191406 L 0 2.59375 C 21.941406 8.203125 36.453125 21.742188 42.480469 38.015625 L 36.355469 6.902344 C 35.296875 2.613281 32.226562 1.339844 28.429688 1.191406 "/>
<g clip-path="url(#clip2)" clip-rule="nonzero">
<path style=" stroke:none;fill-rule:nonzero;fill:rgb(2.745056%,37.646484%,63.922119%);fill-opacity:1;" d="M 220.976562 64.46875 L 221.804688 64.46875 C 222.386719 64.46875 222.507812 64.125 222.507812 63.851562 C 222.507812 63.378906 222.203125 63.269531 221.726562 63.269531 L 220.976562 63.269531 Z M 220.261719 62.742188 L 221.96875 62.742188 C 222.367188 62.742188 223.238281 62.847656 223.238281 63.851562 C 223.238281 64.117188 223.160156 64.492188 222.589844 64.734375 L 222.589844 64.757812 C 223.082031 64.839844 223.109375 65.308594 223.136719 65.683594 C 223.171875 66.277344 223.136719 66.386719 223.292969 66.597656 L 222.550781 66.597656 C 222.410156 66.453125 222.441406 66.34375 222.410156 65.71875 C 222.410156 65.359375 222.367188 64.996094 221.5625 64.996094 L 220.976562 64.996094 L 220.976562 66.597656 L 220.261719 66.597656 Z M 221.671875 67.976562 C 223.425781 67.976562 224.800781 66.519531 224.800781 64.699219 C 224.800781 62.878906 223.425781 61.425781 221.671875 61.425781 C 219.917969 61.425781 218.539062 62.878906 218.539062 64.699219 C 218.539062 66.519531 219.917969 67.976562 221.671875 67.976562 M 221.671875 60.839844 C 223.832031 60.839844 225.53125 62.570312 225.53125 64.699219 C 225.53125 66.828125 223.832031 68.5625 221.671875 68.5625 C 219.507812 68.5625 217.8125 66.828125 217.8125 64.699219 C 217.8125 62.570312 219.507812 60.839844 221.671875 60.839844 "/>
</g>
</g>
</svg>
