<?xml version="1.0" encoding="UTF-8"?>
<svg xmlns="http://www.w3.org/2000/svg" xmlns:xlink="http://www.w3.org/1999/xlink" width="16pt" height="14pt" viewBox="0 0 16 14" version="1.1">
<defs>
<clipPath id="clip2">
  <path d="M 7 9 L 9 9 L 9 11 L 7 11 Z M 7 9 "/>
</clipPath>
<clipPath id="clip3">
  <path d="M 9 10 C 9 10.550781 8.550781 11 8 11 C 7.449219 11 7 10.550781 7 10 C 7 9.449219 7.449219 9 8 9 C 8.550781 9 9 9.449219 9 10 "/>
</clipPath>
<clipPath id="clip1">
  <rect width="16" height="14"/>
</clipPath>
<g id="surface4" clip-path="url(#clip1)">
<path style="fill:none;stroke-width:2;stroke-linecap:butt;stroke-linejoin:round;stroke:rgb(89.411926%,3.529358%,49.803162%);stroke-opacity:1;stroke-miterlimit:10;" d="M 14 12 L 0 12 L 7 0 Z M 14 12 " transform="matrix(1,0,0,1,1,1)"/>
<path style="fill:none;stroke-width:2;stroke-linecap:round;stroke-linejoin:round;stroke:rgb(89.411926%,3.529358%,49.803162%);stroke-opacity:1;stroke-miterlimit:10;" d="M 0 0 L 0 1 " transform="matrix(1,0,0,1,8,6)"/>
<g clip-path="url(#clip2)" clip-rule="nonzero">
<g clip-path="url(#clip3)" clip-rule="evenodd">
<path style=" stroke:none;fill-rule:nonzero;fill:rgb(89.411926%,3.529358%,49.803162%);fill-opacity:1;" d="M 2 4 L 14 4 L 14 16 L 2 16 Z M 2 4 "/>
</g>
</g>
</g>
</defs>
<g id="surface1">
<use xlink:href="#surface4"/>
</g>
</svg>
